<svg version="1.1" xmlns="http://www.w3.org/2000/svg" viewBox="0 0 2081.111770629883 1167.950096130371" width="2081.111770629883" height="1167.950096130371" filter="invert(93%) hue-rotate(180deg)">
  <!-- svg-source:excalidraw -->
  
  <defs>
    <style class="style-fonts">
      @font-face {
        font-family: "Virgil";
        src: url("https://excalidraw.com/Virgil.woff2");
      }
      @font-face {
        font-family: "Cascadia";
        src: url("https://excalidraw.com/Cascadia.woff2");
      }
    </style>
    
  </defs>
  <rect x="0" y="0" width="2081.111770629883" height="1167.950096130371" fill="#ffffff"></rect><g transform="translate(282.29979705810547 10) rotate(0 388.40966796875 25)"><text x="0" y="0" font-family="Virgil, Segoe UI Emoji" font-size="20px" fill="#1e1e1e" text-anchor="start" style="white-space: pre;" direction="ltr" dominant-baseline="text-before-edge">Eventos son todas las acciones que el usuario realiza en nuestro documento </text><text x="0" y="25" font-family="Virgil, Segoe UI Emoji" font-size="20px" fill="#1e1e1e" text-anchor="start" style="white-space: pre;" direction="ltr" dominant-baseline="text-before-edge">o interfaz</text></g><g transform="translate(257.49999237060547 277.9999694824219) rotate(0 301.0197448730469 25)"><text x="0" y="0" font-family="Virgil, Segoe UI Emoji" font-size="20px" fill="#1e1e1e" text-anchor="start" style="white-space: pre;" direction="ltr" dominant-baseline="text-before-edge">Un listener es un elemento que esta esperando recibir algún </text><text x="0" y="25" font-family="Virgil, Segoe UI Emoji" font-size="20px" fill="#1e1e1e" text-anchor="start" style="white-space: pre;" direction="ltr" dominant-baseline="text-before-edge">evento, y ejecuta una función como respuesta a ese evento</text></g><g transform="translate(346.2999496459961 535.5999450683594) rotate(0 404.9665222167969 23.70001220703125)"><text x="0" y="0" font-family="Virgil, Segoe UI Emoji" font-size="37.92001953125003px" fill="#1e1e1e" text-anchor="start" style="white-space: pre;" direction="ltr" dominant-baseline="text-before-edge">element.addEventListener( event, callback )</text></g><g stroke-linecap="round"><g transform="translate(375.09993743896484 625.199951171875) rotate(0 -36.40618187705056 46.15831348858774)"><path d="M-0.39 -1.07 C-12.6 14.52, -61.34 77.72, -73.79 93.39 M1.61 0.98 C-10.66 16.23, -61.45 76.01, -74.42 91.58" stroke="#e03131" stroke-width="1" fill="none"></path></g><g transform="translate(375.09993743896484 625.199951171875) rotate(0 -36.40618187705056 46.15831348858774)"><path d="M-65.91 64.42 C-65.82 69.49, -69.17 78.14, -72.6 90.11 M-63.3 63.18 C-68.34 73, -70.91 81.26, -74.94 91.51" stroke="#e03131" stroke-width="1" fill="none"></path></g><g transform="translate(375.09993743896484 625.199951171875) rotate(0 -36.40618187705056 46.15831348858774)"><path d="M-50.21 77.63 C-54.12 79.26, -61.51 84.52, -72.6 90.11 M-47.6 76.4 C-57.79 81.75, -65.51 85.67, -74.94 91.51" stroke="#e03131" stroke-width="1" fill="none"></path></g></g><mask></mask><g transform="translate(136.69991302490234 728.4000244140625) rotate(0 142.6998748779297 25)"><text x="0" y="0" font-family="Virgil, Segoe UI Emoji" font-size="20px" fill="#e03131" text-anchor="start" style="white-space: pre;" direction="ltr" dominant-baseline="text-before-edge">Elemento que queremos poner</text><text x="0" y="25" font-family="Virgil, Segoe UI Emoji" font-size="20px" fill="#e03131" text-anchor="start" style="white-space: pre;" direction="ltr" dominant-baseline="text-before-edge">a escuchar</text></g><g stroke-linecap="round"><g transform="translate(628.6999130249023 515.6000061035156) rotate(0 18.487549564652113 -26.035821376759543)"><path d="M1.12 -1.13 C6.86 -9.92, 28.77 -44.6, 34.42 -52.96 M0.25 0.89 C6.38 -7.76, 31.08 -42.9, 36.73 -51.93" stroke="#2f9e44" stroke-width="1" fill="none"></path></g><g transform="translate(628.6999130249023 515.6000061035156) rotate(0 18.487549564652113 -26.035821376759543)"><path d="M27.68 -24.09 C30.15 -31.86, 35.07 -39.89, 38 -51.74 M29.53 -23.73 C31.3 -32.31, 35.47 -43.62, 37.31 -52.4" stroke="#2f9e44" stroke-width="1" fill="none"></path></g><g transform="translate(628.6999130249023 515.6000061035156) rotate(0 18.487549564652113 -26.035821376759543)"><path d="M10.63 -35.51 C18.15 -40.04, 28.15 -44.67, 38 -51.74 M12.48 -35.15 C20.01 -39.89, 30.03 -47.28, 37.31 -52.4" stroke="#2f9e44" stroke-width="1" fill="none"></path></g></g><mask></mask><g transform="translate(609.4999008178711 430.00001525878906) rotate(0 162.39987182617188 12.5)"><text x="0" y="0" font-family="Virgil, Segoe UI Emoji" font-size="20px" fill="#2f9e44" text-anchor="start" style="white-space: pre;" direction="ltr" dominant-baseline="text-before-edge">Método para agregar un listener</text></g><g stroke-linecap="round"><g transform="translate(895.8998641967773 588.4000244140625) rotate(0 -19.503247974012083 56.53112336323596)"><path d="M-0.41 -0.44 C-7 18.6, -33.15 95.68, -39.49 114.78 M1.58 -1.71 C-5.2 16.97, -33.86 94.3, -40.58 113.27" stroke="#1971c2" stroke-width="1" fill="none"></path></g><g transform="translate(895.8998641967773 588.4000244140625) rotate(0 -19.503247974012083 56.53112336323596)"><path d="M-41.32 82.79 C-38.49 93.77, -39.5 100.95, -41.35 114.75 M-41.32 83.07 C-39.91 93.05, -41.5 103.79, -40.94 112.99" stroke="#1971c2" stroke-width="1" fill="none"></path></g><g transform="translate(895.8998641967773 588.4000244140625) rotate(0 -19.503247974012083 56.53112336323596)"><path d="M-22.04 89.81 C-25.13 98.57, -32.04 103.6, -41.35 114.75 M-22.03 90.08 C-26.94 97.87, -34.91 106.29, -40.94 112.99" stroke="#1971c2" stroke-width="1" fill="none"></path></g></g><mask></mask><g transform="translate(756.6999130249023 746) rotate(0 117.88990783691406 25)"><text x="0" y="0" font-family="Virgil, Segoe UI Emoji" font-size="20px" fill="#1971c2" text-anchor="start" style="white-space: pre;" direction="ltr" dominant-baseline="text-before-edge">Evento al que queremos</text><text x="0" y="25" font-family="Virgil, Segoe UI Emoji" font-size="20px" fill="#1971c2" text-anchor="start" style="white-space: pre;" direction="ltr" dominant-baseline="text-before-edge">reaccionar</text></g><g stroke-linecap="round"><g transform="translate(1073.499900817871 535.5999755859375) rotate(0 18.3012664534059 -28.745080519095097)"><path d="M0.91 -0.49 C6.94 -10.1, 30.7 -47.65, 36.68 -57 M-0.08 -1.8 C5.81 -11.27, 30.01 -46.68, 36.09 -55.56" stroke="#f08c00" stroke-width="1" fill="none"></path></g><g transform="translate(1073.499900817871 535.5999755859375) rotate(0 18.3012664534059 -28.745080519095097)"><path d="M27.85 -25.36 C30.72 -35.2, 33.99 -48.19, 36.75 -55.34 M28.03 -26.92 C31.16 -35.93, 33.52 -45.15, 36.08 -54.79" stroke="#f08c00" stroke-width="1" fill="none"></path></g><g transform="translate(1073.499900817871 535.5999755859375) rotate(0 18.3012664534059 -28.745080519095097)"><path d="M10.9 -36.93 C19.62 -42.95, 28.68 -51.99, 36.75 -55.34 M11.08 -38.49 C19.86 -43.58, 27.93 -48.9, 36.08 -54.79" stroke="#f08c00" stroke-width="1" fill="none"></path></g></g><mask></mask><g transform="translate(1117.4999618530273 437.1999816894531) rotate(0 152.61988830566406 25)"><text x="0" y="0" font-family="Virgil, Segoe UI Emoji" font-size="20px" fill="#f08c00" text-anchor="start" style="white-space: pre;" direction="ltr" dominant-baseline="text-before-edge">Lo que queremos que se haga </text><text x="0" y="25" font-family="Virgil, Segoe UI Emoji" font-size="20px" fill="#f08c00" text-anchor="start" style="white-space: pre;" direction="ltr" dominant-baseline="text-before-edge">cuando suceda el evento </text></g><g transform="translate(10 944.950065612793) rotate(0 311.8924255371094 18.999996185302734)"><text x="0" y="0" font-family="Virgil, Segoe UI Emoji" font-size="30.399993896484357px" fill="#1e1e1e" text-anchor="start" style="white-space: pre;" direction="ltr" dominant-baseline="text-before-edge">&lt;button id="my-button"&gt;Click me!&lt;/button&gt;</text></g><g transform="translate(904.0052103454016 901.4500617980957) rotate(0 420.32391357421875 18.999996185302734)"><text x="0" y="0" font-family="Virgil, Segoe UI Emoji" font-size="30.399993896484357px" fill="#e03131" text-anchor="start" style="white-space: pre;" direction="ltr" dominant-baseline="text-before-edge">let someButton = document.getElementById("my-button")</text></g><g transform="translate(988.9999771118164 1025.9500885009766) rotate(0 103.01397705078125 22.5)"><text x="0" y="0" font-family="Virgil, Segoe UI Emoji" font-size="36px" fill="#e03131" text-anchor="start" style="white-space: pre;" direction="ltr" dominant-baseline="text-before-edge">someButton</text></g><g transform="translate(1202.9999542236328 1024.9500274658203) rotate(0 165.36593627929688 22.5)"><text x="0" y="0" font-family="Virgil, Segoe UI Emoji" font-size="36px" fill="#2f9e44" text-anchor="start" style="white-space: pre;" direction="ltr" dominant-baseline="text-before-edge">.addEventListener(</text></g><g transform="translate(1528.9999389648438 1020.9500885009766) rotate(0 47.32197570800781 22.5)"><text x="0" y="0" font-family="Virgil, Segoe UI Emoji" font-size="36px" fill="#1971c2" text-anchor="start" style="white-space: pre;" direction="ltr" dominant-baseline="text-before-edge">"click"</text></g><g transform="translate(1624.9999237060547 1022.9500961303711) rotate(0 223.05592346191406 67.5)"><text x="0" y="0" font-family="Virgil, Segoe UI Emoji" font-size="36px" fill="#f08c00" text-anchor="start" style="white-space: pre;" direction="ltr" dominant-baseline="text-before-edge">,() =&gt; {</text><text x="0" y="45" font-family="Virgil, Segoe UI Emoji" font-size="36px" fill="#f08c00" text-anchor="start" style="white-space: pre;" direction="ltr" dominant-baseline="text-before-edge">console.log("Hola koders!")</text><text x="0" y="90" font-family="Virgil, Segoe UI Emoji" font-size="36px" fill="#f08c00" text-anchor="start" style="white-space: pre;" direction="ltr" dominant-baseline="text-before-edge">}</text></g><g transform="translate(1646.9998931884766 1111.9501495361328) rotate(0 6.0839996337890625 22.5)"><text x="0" y="0" font-family="Virgil, Segoe UI Emoji" font-size="36px" fill="#2f9e44" text-anchor="start" style="white-space: pre;" direction="ltr" dominant-baseline="text-before-edge">)</text></g></svg>