<svg version="1.1" xmlns="http://www.w3.org/2000/svg" viewBox="0 0 5934.4034576416 2187.166659037273" width="5934.4034576416" height="2187.166659037273">
  <!-- svg-source:excalidraw -->
  
  <defs>
    <style class="style-fonts">
      @font-face {
        font-family: "Virgil";
        src: url("https://excalidraw.com/Virgil.woff2");
      }
      @font-face {
        font-family: "Cascadia";
        src: url("https://excalidraw.com/Cascadia.woff2");
      }
    </style>
    
  </defs>
  <rect x="0" y="0" width="5934.4034576416" height="2187.166659037273" fill="#ffffff"></rect><g transform="translate(2475.5176544189453 71.49990081787263) rotate(0 561.480712890625 54.500007629394474)"><text x="0" y="0" font-family="Virgil, Segoe UI Emoji" font-size="87.20001220703116px" fill="#1e1e1e" text-anchor="start" style="white-space: pre;" direction="ltr" dominant-baseline="text-before-edge">Pensamiento estructurado</text></g><g transform="translate(5053.517837524412 77.49996185302894) rotate(0 335.6710205078125 45.499992370605426)"><text x="0" y="0" font-family="Virgil, Segoe UI Emoji" font-size="72.79998779296868px" fill="#1e1e1e" text-anchor="start" style="white-space: pre;" direction="ltr" dominant-baseline="text-before-edge">Resolver problemas</text></g><g transform="translate(5121.5177154541 317.49992370605617) rotate(0 391.80584716796875 22.5)"><text x="0" y="0" font-family="Virgil, Segoe UI Emoji" font-size="36px" fill="#1e1e1e" text-anchor="start" style="white-space: pre;" direction="ltr" dominant-baseline="text-before-edge">Necesito el primer caracter de un elemento </text></g><g transform="translate(5135.711929321287 432.999877929689) rotate(0 314.33392333984375 22.5)"><text x="0" y="0" font-family="Virgil, Segoe UI Emoji" font-size="36px" fill="#1e1e1e" text-anchor="start" style="white-space: pre;" direction="ltr" dominant-baseline="text-before-edge">Necesito saber si un número es par</text></g><g transform="translate(5095.683853149412 530.4998779296889) rotate(0 414.35980224609375 45)"><text x="0" y="0" font-family="Virgil, Segoe UI Emoji" font-size="36px" fill="#1e1e1e" text-anchor="start" style="white-space: pre;" direction="ltr" dominant-baseline="text-before-edge">Necesito seleccionar ciertos elementos dentro </text><text x="0" y="45" font-family="Virgil, Segoe UI Emoji" font-size="36px" fill="#1e1e1e" text-anchor="start" style="white-space: pre;" direction="ltr" dominant-baseline="text-before-edge">de un gran grupo de elementos</text></g><g transform="translate(2915.0209768216237 321.4999389648452) rotate(0 147.60357666015625 58.22274977138932)"><text x="0" y="0" font-family="Virgil, Segoe UI Emoji" font-size="46.57819981711147px" fill="#1971c2" text-anchor="start" style="white-space: pre;" direction="ltr" dominant-baseline="text-before-edge">Definición del</text><text x="0" y="58.22274977138933" font-family="Virgil, Segoe UI Emoji" font-size="46.57819981711147px" fill="#1971c2" text-anchor="start" style="white-space: pre;" direction="ltr" dominant-baseline="text-before-edge">problema</text></g><g transform="translate(3646.3626701352873 570.1540965693359) rotate(0 231.56924438476562 29.11137488569466)"><text x="0" y="0" font-family="Virgil, Segoe UI Emoji" font-size="46.57819981711147px" fill="#1e1e1e" text-anchor="start" style="white-space: pre;" direction="ltr" dominant-baseline="text-before-edge">Análisis del problema</text></g><g transform="translate(3613.40518177555 941.0282404047869) rotate(0 292.78546142578125 29.11137488569466)"><text x="0" y="0" font-family="Virgil, Segoe UI Emoji" font-size="46.57819981711146px" fill="#1e1e1e" text-anchor="start" style="white-space: pre;" direction="ltr" dominant-baseline="text-before-edge">definición de herramientas</text></g><g transform="translate(3021.011623038524 1502.7211416925745) rotate(0 144.57652282714844 58.22274977138932)"><text x="0" y="0" font-family="Virgil, Segoe UI Emoji" font-size="46.57819981711147px" fill="#1e1e1e" text-anchor="start" style="white-space: pre;" direction="ltr" dominant-baseline="text-before-edge">Análisis de</text><text x="0" y="58.22274977138933" font-family="Virgil, Segoe UI Emoji" font-size="46.57819981711147px" fill="#1e1e1e" text-anchor="start" style="white-space: pre;" direction="ltr" dominant-baseline="text-before-edge">herramientas</text></g><g transform="translate(2165.0656079701803 1365.9475082432064) rotate(0 263.95867919921875 29.11137488569466)"><text x="0" y="0" font-family="Virgil, Segoe UI Emoji" font-size="46.57819981711147px" fill="#1e1e1e" text-anchor="start" style="white-space: pre;" direction="ltr" dominant-baseline="text-before-edge">Definición de soluciones</text></g><g transform="translate(1836.5443154700697 946.4241593292528) rotate(0 240.92984008789062 29.11137488569466)"><text x="0" y="0" font-family="Virgil, Segoe UI Emoji" font-size="46.57819981711147px" fill="#1e1e1e" text-anchor="start" style="white-space: pre;" direction="ltr" dominant-baseline="text-before-edge">Análisis de soluciones</text></g><g transform="translate(1924.6149871857415 602.2321505239951) rotate(0 316.3731689453125 29.11137488569466)"><text x="0" y="0" font-family="Virgil, Segoe UI Emoji" font-size="46.57819981711147px" fill="#1e1e1e" text-anchor="start" style="white-space: pre;" direction="ltr" dominant-baseline="text-before-edge">Implementación y depuración</text></g><g transform="translate(2841.5177154541007 485.0000762939468) rotate(0 260.72991943359375 135)"><text x="0" y="0" font-family="Virgil, Segoe UI Emoji" font-size="36px" fill="#1971c2" text-anchor="start" style="white-space: pre;" direction="ltr" dominant-baseline="text-before-edge">colgar un cuadro</text><text x="0" y="45" font-family="Virgil, Segoe UI Emoji" font-size="36px" fill="#1971c2" text-anchor="start" style="white-space: pre;" direction="ltr" dominant-baseline="text-before-edge"></text><text x="0" y="90" font-family="Virgil, Segoe UI Emoji" font-size="36px" fill="#1971c2" text-anchor="start" style="white-space: pre;" direction="ltr" dominant-baseline="text-before-edge">Colgar un cuadro de madera</text><text x="0" y="135" font-family="Virgil, Segoe UI Emoji" font-size="36px" fill="#1971c2" text-anchor="start" style="white-space: pre;" direction="ltr" dominant-baseline="text-before-edge">ligero en un muro de concreto</text><text x="0" y="180" font-family="Virgil, Segoe UI Emoji" font-size="36px" fill="#1971c2" text-anchor="start" style="white-space: pre;" direction="ltr" dominant-baseline="text-before-edge">a una altura de 2mt</text><text x="0" y="225" font-family="Virgil, Segoe UI Emoji" font-size="36px" fill="#1971c2" text-anchor="start" style="white-space: pre;" direction="ltr" dominant-baseline="text-before-edge"></text></g><g transform="translate(3556.787704467772 659.0000152587905) rotate(0 579.27587890625 67.5)"><text x="0" y="0" font-family="Virgil, Segoe UI Emoji" font-size="36px" fill="#2f9e44" text-anchor="start" style="white-space: pre;" direction="ltr" dominant-baseline="text-before-edge">Para solucionar el problema, podríamos adherir el cuadro al muro</text><text x="0" y="45" font-family="Virgil, Segoe UI Emoji" font-size="36px" fill="#2f9e44" text-anchor="start" style="white-space: pre;" direction="ltr" dominant-baseline="text-before-edge">podríamos colgarlo usando alguna cuerda</text><text x="0" y="90" font-family="Virgil, Segoe UI Emoji" font-size="36px" fill="#2f9e44" text-anchor="start" style="white-space: pre;" direction="ltr" dominant-baseline="text-before-edge">podríamos montarlo sobre algo  </text></g><g transform="translate(3541.517639160155 1063.4999465942396) rotate(0 180.52194213867188 225.00000000000006)"><text x="0" y="0" font-family="Virgil, Segoe UI Emoji" font-size="36px" fill="#f08c00" text-anchor="start" style="white-space: pre;" direction="ltr" dominant-baseline="text-before-edge">Clavo para concreto</text><text x="0" y="45" font-family="Virgil, Segoe UI Emoji" font-size="36px" fill="#f08c00" text-anchor="start" style="white-space: pre;" direction="ltr" dominant-baseline="text-before-edge">Martillo</text><text x="0" y="90" font-family="Virgil, Segoe UI Emoji" font-size="36px" fill="#f08c00" text-anchor="start" style="white-space: pre;" direction="ltr" dominant-baseline="text-before-edge">Cinta doble cara</text><text x="0" y="135" font-family="Virgil, Segoe UI Emoji" font-size="36px" fill="#f08c00" text-anchor="start" style="white-space: pre;" direction="ltr" dominant-baseline="text-before-edge">Soporte o base</text><text x="0" y="180" font-family="Virgil, Segoe UI Emoji" font-size="36px" fill="#f08c00" text-anchor="start" style="white-space: pre;" direction="ltr" dominant-baseline="text-before-edge">Taladro</text><text x="0" y="225" font-family="Virgil, Segoe UI Emoji" font-size="36px" fill="#f08c00" text-anchor="start" style="white-space: pre;" direction="ltr" dominant-baseline="text-before-edge">Repisa</text><text x="0" y="270" font-family="Virgil, Segoe UI Emoji" font-size="36px" fill="#f08c00" text-anchor="start" style="white-space: pre;" direction="ltr" dominant-baseline="text-before-edge">Escalera</text><text x="0" y="315" font-family="Virgil, Segoe UI Emoji" font-size="36px" fill="#f08c00" text-anchor="start" style="white-space: pre;" direction="ltr" dominant-baseline="text-before-edge">Taquetes</text><text x="0" y="360" font-family="Virgil, Segoe UI Emoji" font-size="36px" fill="#f08c00" text-anchor="start" style="white-space: pre;" direction="ltr" dominant-baseline="text-before-edge">Lápiz</text><text x="0" y="405" font-family="Virgil, Segoe UI Emoji" font-size="36px" fill="#f08c00" text-anchor="start" style="white-space: pre;" direction="ltr" dominant-baseline="text-before-edge"></text></g><g transform="translate(3948.7456741333 1059.2498779296889) rotate(0 171.64793395996094 247.49999999999994)"><text x="0" y="0" font-family="Virgil, Segoe UI Emoji" font-size="36px" fill="#f08c00" text-anchor="start" style="white-space: pre;" direction="ltr" dominant-baseline="text-before-edge">Nivel</text><text x="0" y="45" font-family="Virgil, Segoe UI Emoji" font-size="36px" fill="#f08c00" text-anchor="start" style="white-space: pre;" direction="ltr" dominant-baseline="text-before-edge">El cuadro</text><text x="0" y="90" font-family="Virgil, Segoe UI Emoji" font-size="36px" fill="#f08c00" text-anchor="start" style="white-space: pre;" direction="ltr" dominant-baseline="text-before-edge">Cuerda</text><text x="0" y="135" font-family="Virgil, Segoe UI Emoji" font-size="36px" fill="#f08c00" text-anchor="start" style="white-space: pre;" direction="ltr" dominant-baseline="text-before-edge">Tornillos</text><text x="0" y="180" font-family="Virgil, Segoe UI Emoji" font-size="36px" fill="#f08c00" text-anchor="start" style="white-space: pre;" direction="ltr" dominant-baseline="text-before-edge">Pegamento</text><text x="0" y="225" font-family="Virgil, Segoe UI Emoji" font-size="36px" fill="#f08c00" text-anchor="start" style="white-space: pre;" direction="ltr" dominant-baseline="text-before-edge">Regla</text><text x="0" y="270" font-family="Virgil, Segoe UI Emoji" font-size="36px" fill="#f08c00" text-anchor="start" style="white-space: pre;" direction="ltr" dominant-baseline="text-before-edge">Extensión Eléctrica</text><text x="0" y="315" font-family="Virgil, Segoe UI Emoji" font-size="36px" fill="#f08c00" text-anchor="start" style="white-space: pre;" direction="ltr" dominant-baseline="text-before-edge">Electricidad</text><text x="0" y="360" font-family="Virgil, Segoe UI Emoji" font-size="36px" fill="#f08c00" text-anchor="start" style="white-space: pre;" direction="ltr" dominant-baseline="text-before-edge">Broca</text><text x="0" y="405" font-family="Virgil, Segoe UI Emoji" font-size="36px" fill="#f08c00" text-anchor="start" style="white-space: pre;" direction="ltr" dominant-baseline="text-before-edge"></text><text x="0" y="450" font-family="Virgil, Segoe UI Emoji" font-size="36px" fill="#f08c00" text-anchor="start" style="white-space: pre;" direction="ltr" dominant-baseline="text-before-edge"></text></g><g transform="translate(2856.9342295328765 1654.9999109903986) rotate(0 476.40582275390625 67.5)"><text x="0" y="0" font-family="Virgil, Segoe UI Emoji" font-size="36px" fill="#846358" text-anchor="start" style="white-space: pre;" direction="ltr" dominant-baseline="text-before-edge">Taladro, taquetes, broca,</text><text x="0" y="45" font-family="Virgil, Segoe UI Emoji" font-size="36px" fill="#846358" text-anchor="start" style="white-space: pre;" direction="ltr" dominant-baseline="text-before-edge">extensión eléctrica, tornillos</text><text x="0" y="90" font-family="Virgil, Segoe UI Emoji" font-size="36px" fill="#846358" text-anchor="start" style="white-space: pre;" direction="ltr" dominant-baseline="text-before-edge">nivel, soporte o base, escalera, lápiz, cuadro, martillo</text></g><g transform="translate(3134.025700887043 1875.4998397827158) rotate(0 343.27789306640625 45)"><text x="0" y="0" font-family="Virgil, Segoe UI Emoji" font-size="36px" fill="#846358" text-anchor="start" style="white-space: pre;" direction="ltr" dominant-baseline="text-before-edge">Martillo, clavo para concreto, soporte,</text><text x="0" y="45" font-family="Virgil, Segoe UI Emoji" font-size="36px" fill="#846358" text-anchor="start" style="white-space: pre;" direction="ltr" dominant-baseline="text-before-edge">regla, nivel, escalera, lápiz, cuadro</text></g><g transform="translate(2824.989598592121 2054.999910990398) rotate(0 572.435791015625 45)"><text x="0" y="0" font-family="Virgil, Segoe UI Emoji" font-size="36px" fill="#846358" text-anchor="start" style="white-space: pre;" direction="ltr" dominant-baseline="text-before-edge">Pegamento, regla, nivel, escalera, lápiz, cuadro, cinta doble cara</text><text x="0" y="45" font-family="Virgil, Segoe UI Emoji" font-size="36px" fill="#846358" text-anchor="start" style="white-space: pre;" direction="ltr" dominant-baseline="text-before-edge"></text></g><g transform="translate(1465.179611206053 1502.166659037273) rotate(0 587.2677612304688 337.5)"><text x="0" y="0" font-family="Virgil, Segoe UI Emoji" font-size="36px" fill="#9c36b5" text-anchor="start" style="white-space: pre;" direction="ltr" dominant-baseline="text-before-edge">Taladro, taquetes, broca,   </text><text x="0" y="45" font-family="Virgil, Segoe UI Emoji" font-size="36px" fill="#9c36b5" text-anchor="start" style="white-space: pre;" direction="ltr" dominant-baseline="text-before-edge">extensión eléctrica, tornillos</text><text x="0" y="90" font-family="Virgil, Segoe UI Emoji" font-size="36px" fill="#9c36b5" text-anchor="start" style="white-space: pre;" direction="ltr" dominant-baseline="text-before-edge">nivel, soporte o base, escalera, lápiz, cuadro, martillo</text><text x="0" y="135" font-family="Virgil, Segoe UI Emoji" font-size="36px" fill="#9c36b5" text-anchor="start" style="white-space: pre;" direction="ltr" dominant-baseline="text-before-edge"></text><text x="0" y="180" font-family="Virgil, Segoe UI Emoji" font-size="36px" fill="#9c36b5" text-anchor="start" style="white-space: pre;" direction="ltr" dominant-baseline="text-before-edge">1.- marcar el sitio donde debe colocarse el cuadro</text><text x="0" y="225" font-family="Virgil, Segoe UI Emoji" font-size="36px" fill="#9c36b5" text-anchor="start" style="white-space: pre;" direction="ltr" dominant-baseline="text-before-edge">    (cuadro, lápiz, escalera, regla o instrumento </text><text x="0" y="270" font-family="Virgil, Segoe UI Emoji" font-size="36px" fill="#9c36b5" text-anchor="start" style="white-space: pre;" direction="ltr" dominant-baseline="text-before-edge">    de medición)</text><text x="0" y="315" font-family="Virgil, Segoe UI Emoji" font-size="36px" fill="#9c36b5" text-anchor="start" style="white-space: pre;" direction="ltr" dominant-baseline="text-before-edge">2.- Tomar el taladro, colocarle la broca, conectarlo</text><text x="0" y="360" font-family="Virgil, Segoe UI Emoji" font-size="36px" fill="#9c36b5" text-anchor="start" style="white-space: pre;" direction="ltr" dominant-baseline="text-before-edge">    a la corriente, subir a la escalera, taladrar el </text><text x="0" y="405" font-family="Virgil, Segoe UI Emoji" font-size="36px" fill="#9c36b5" text-anchor="start" style="white-space: pre;" direction="ltr" dominant-baseline="text-before-edge">    barreno en la posición marcada</text><text x="0" y="450" font-family="Virgil, Segoe UI Emoji" font-size="36px" fill="#9c36b5" text-anchor="start" style="white-space: pre;" direction="ltr" dominant-baseline="text-before-edge">3.- Tomar el martillo, el taquete, y el clavo, limpiamos el barreno,</text><text x="0" y="495" font-family="Virgil, Segoe UI Emoji" font-size="36px" fill="#9c36b5" text-anchor="start" style="white-space: pre;" direction="ltr" dominant-baseline="text-before-edge">    colocamos el taquete, y después, colocamos el clavo</text><text x="0" y="540" font-family="Virgil, Segoe UI Emoji" font-size="36px" fill="#9c36b5" text-anchor="start" style="white-space: pre;" direction="ltr" dominant-baseline="text-before-edge">4.- tomar el cuadro y colocarlo en el clavo</text><text x="0" y="585" font-family="Virgil, Segoe UI Emoji" font-size="36px" fill="#9c36b5" text-anchor="start" style="white-space: pre;" direction="ltr" dominant-baseline="text-before-edge">5.- Verificamos que el cuadro esté perfectamente colocado</text><text x="0" y="630" font-family="Virgil, Segoe UI Emoji" font-size="36px" fill="#9c36b5" text-anchor="start" style="white-space: pre;" direction="ltr" dominant-baseline="text-before-edge">    usando el nivel </text></g><g transform="translate(653.9999135335283 717.8334426879878) rotate(0 14.472000122070312 22.5)"><text x="0" y="0" font-family="Virgil, Segoe UI Emoji" font-size="36px" fill="#9c36b5" text-anchor="start" style="white-space: pre;" direction="ltr" dominant-baseline="text-before-edge">T</text></g><g transform="translate(10 1499.8332977294915) rotate(0 700.685791015625 225)"><text x="0" y="0" font-family="Virgil, Segoe UI Emoji" font-size="36px" fill="#9c36b5" text-anchor="start" style="white-space: pre;" direction="ltr" dominant-baseline="text-before-edge">Taladro, taquetes, broca,   </text><text x="0" y="45" font-family="Virgil, Segoe UI Emoji" font-size="36px" fill="#9c36b5" text-anchor="start" style="white-space: pre;" direction="ltr" dominant-baseline="text-before-edge">extensión eléctrica, tornillos</text><text x="0" y="90" font-family="Virgil, Segoe UI Emoji" font-size="36px" fill="#9c36b5" text-anchor="start" style="white-space: pre;" direction="ltr" dominant-baseline="text-before-edge">nivel, soporte o base, escalera, lápiz, cuadro, martillo</text><text x="0" y="135" font-family="Virgil, Segoe UI Emoji" font-size="36px" fill="#9c36b5" text-anchor="start" style="white-space: pre;" direction="ltr" dominant-baseline="text-before-edge"></text><text x="0" y="180" font-family="Virgil, Segoe UI Emoji" font-size="36px" fill="#9c36b5" text-anchor="start" style="white-space: pre;" direction="ltr" dominant-baseline="text-before-edge">1.- marcar el sitio donde debe colocarse el cuadro</text><text x="0" y="225" font-family="Virgil, Segoe UI Emoji" font-size="36px" fill="#9c36b5" text-anchor="start" style="white-space: pre;" direction="ltr" dominant-baseline="text-before-edge">    (cuadro, lápiz, escalera, regla o instrumento </text><text x="0" y="270" font-family="Virgil, Segoe UI Emoji" font-size="36px" fill="#9c36b5" text-anchor="start" style="white-space: pre;" direction="ltr" dominant-baseline="text-before-edge">    de medición)</text><text x="0" y="315" font-family="Virgil, Segoe UI Emoji" font-size="36px" fill="#9c36b5" text-anchor="start" style="white-space: pre;" direction="ltr" dominant-baseline="text-before-edge">2.- Tomar el cuadro, y aplicar el pegamento sobre su superficie</text><text x="0" y="360" font-family="Virgil, Segoe UI Emoji" font-size="36px" fill="#9c36b5" text-anchor="start" style="white-space: pre;" direction="ltr" dominant-baseline="text-before-edge">3.- colocar el cuadro en la posición marcada para que quede adherido al muro</text><text x="0" y="405" font-family="Virgil, Segoe UI Emoji" font-size="36px" fill="#9c36b5" text-anchor="start" style="white-space: pre;" direction="ltr" dominant-baseline="text-before-edge">4.- Esperar a que el pegamento seque</text></g><g transform="translate(910.8332824707031 10) rotate(0 587.2677612304688 337.5)"><text x="0" y="0" font-family="Virgil, Segoe UI Emoji" font-size="36px" fill="#9c36b5" text-anchor="start" style="white-space: pre;" direction="ltr" dominant-baseline="text-before-edge">Taladro, taquetes, broca,   </text><text x="0" y="45" font-family="Virgil, Segoe UI Emoji" font-size="36px" fill="#9c36b5" text-anchor="start" style="white-space: pre;" direction="ltr" dominant-baseline="text-before-edge">extensión eléctrica, tornillos</text><text x="0" y="90" font-family="Virgil, Segoe UI Emoji" font-size="36px" fill="#9c36b5" text-anchor="start" style="white-space: pre;" direction="ltr" dominant-baseline="text-before-edge">nivel, soporte o base, escalera, lápiz, cuadro, martillo</text><text x="0" y="135" font-family="Virgil, Segoe UI Emoji" font-size="36px" fill="#9c36b5" text-anchor="start" style="white-space: pre;" direction="ltr" dominant-baseline="text-before-edge"></text><text x="0" y="180" font-family="Virgil, Segoe UI Emoji" font-size="36px" fill="#9c36b5" text-anchor="start" style="white-space: pre;" direction="ltr" dominant-baseline="text-before-edge">1.- marcar el sitio donde debe colocarse el cuadro</text><text x="0" y="225" font-family="Virgil, Segoe UI Emoji" font-size="36px" fill="#9c36b5" text-anchor="start" style="white-space: pre;" direction="ltr" dominant-baseline="text-before-edge">    (cuadro, lápiz, escalera, regla o instrumento </text><text x="0" y="270" font-family="Virgil, Segoe UI Emoji" font-size="36px" fill="#9c36b5" text-anchor="start" style="white-space: pre;" direction="ltr" dominant-baseline="text-before-edge">    de medición)</text><text x="0" y="315" font-family="Virgil, Segoe UI Emoji" font-size="36px" fill="#9c36b5" text-anchor="start" style="white-space: pre;" direction="ltr" dominant-baseline="text-before-edge">2.- Tomar el taladro, colocarle la broca, conectarlo</text><text x="0" y="360" font-family="Virgil, Segoe UI Emoji" font-size="36px" fill="#9c36b5" text-anchor="start" style="white-space: pre;" direction="ltr" dominant-baseline="text-before-edge">    a la corriente, subir a la escalera, taladrar el </text><text x="0" y="405" font-family="Virgil, Segoe UI Emoji" font-size="36px" fill="#9c36b5" text-anchor="start" style="white-space: pre;" direction="ltr" dominant-baseline="text-before-edge">    barreno en la posición marcada</text><text x="0" y="450" font-family="Virgil, Segoe UI Emoji" font-size="36px" fill="#9c36b5" text-anchor="start" style="white-space: pre;" direction="ltr" dominant-baseline="text-before-edge">3.- Tomar el martillo, el taquete, y el clavo, limpiamos el barreno,</text><text x="0" y="495" font-family="Virgil, Segoe UI Emoji" font-size="36px" fill="#9c36b5" text-anchor="start" style="white-space: pre;" direction="ltr" dominant-baseline="text-before-edge">    colocamos el taquete, y después, colocamos el clavo</text><text x="0" y="540" font-family="Virgil, Segoe UI Emoji" font-size="36px" fill="#9c36b5" text-anchor="start" style="white-space: pre;" direction="ltr" dominant-baseline="text-before-edge">4.- tomar el cuadro y colocarlo en el clavo</text><text x="0" y="585" font-family="Virgil, Segoe UI Emoji" font-size="36px" fill="#9c36b5" text-anchor="start" style="white-space: pre;" direction="ltr" dominant-baseline="text-before-edge">5.- Verificamos que el cuadro esté perfectamente colocado</text><text x="0" y="630" font-family="Virgil, Segoe UI Emoji" font-size="36px" fill="#9c36b5" text-anchor="start" style="white-space: pre;" direction="ltr" dominant-baseline="text-before-edge">    usando el nivel </text></g><g transform="translate(3479.101181030273 273.5000228881836) rotate(0 143.00003051757812 97.00000762939455)" stroke="none"><path fill="#9c36b5" d="M -0.76,1.26 Q -0.76,1.26 -4.31,0.61 -7.86,-0.04 -8.49,-0.74 -9.12,-1.45 -9.50,-1.74 -9.89,-2.04 -10.19,-2.43 -10.49,-2.81 -10.69,-3.25 -10.89,-3.70 -10.98,-4.17 -11.07,-4.65 -11.04,-5.14 -11.02,-5.63 -10.87,-6.09 -10.73,-6.56 -10.48,-6.98 -10.23,-7.39 -9.89,-7.74 -9.54,-8.08 -9.13,-8.34 -8.71,-8.59 -8.24,-8.74 -7.78,-8.88 -7.29,-8.92 -6.81,-8.95 -6.33,-8.86 -5.85,-8.77 -5.40,-8.58 -4.96,-8.38 -0.76,-7.80 3.44,-7.22 17.85,-2.78 32.26,1.66 46.45,7.01 60.63,12.36 80.50,20.98 100.37,29.60 120.89,39.01 141.40,48.43 162.83,59.36 184.26,70.29 204.36,81.87 224.45,93.45 242.37,107.13 260.30,120.80 271.58,133.75 282.86,146.70 287.85,158.35 292.83,170.00 294.35,177.50 295.87,185.01 293.90,190.75 291.93,196.49 288.41,197.77 284.88,199.05 281.92,198.56 278.95,198.08 277.00,197.01 275.05,195.95 272.96,195.65 270.88,195.34 270.67,195.30 270.46,195.26 270.28,195.15 270.09,195.05 269.95,194.89 269.81,194.73 269.73,194.53 269.65,194.33 269.63,194.12 269.62,193.91 269.67,193.70 269.73,193.50 269.84,193.32 269.96,193.14 270.13,193.01 270.29,192.88 270.49,192.81 270.70,192.74 270.91,192.74 271.12,192.73 271.32,192.80 271.52,192.86 271.70,192.99 271.87,193.11 271.99,193.29 272.11,193.46 272.17,193.66 272.23,193.87 272.22,194.08 272.21,194.29 272.14,194.49 272.06,194.69 271.93,194.85 271.79,195.02 271.61,195.13 271.43,195.24 271.23,195.29 271.02,195.34 270.81,195.32 270.60,195.30 270.40,195.22 270.21,195.13 270.05,194.99 269.89,194.84 269.79,194.66 269.69,194.47 269.65,194.26 269.61,194.05 269.65,193.84 269.68,193.63 269.77,193.44 269.87,193.25 270.02,193.10 270.17,192.96 270.37,192.86 270.56,192.77 270.77,192.74 270.98,192.72 270.98,192.72 270.98,192.72 273.12,192.58 275.27,192.44 277.60,191.64 279.93,190.85 281.63,191.00 283.32,191.14 285.36,191.21 287.39,191.27 287.67,188.74 287.96,186.20 286.66,179.65 285.37,173.10 281.03,162.49 276.69,151.89 266.03,139.55 255.36,127.20 237.88,113.83 220.41,100.45 200.50,88.97 180.59,77.49 159.31,66.63 138.03,55.78 117.59,46.40 97.15,37.02 77.46,28.47 57.77,19.92 43.82,14.65 29.87,9.38 15.97,5.06 2.07,0.74 -3.52,-0.35 -9.12,-1.45 -9.50,-1.74 -9.89,-2.04 -10.19,-2.43 -10.49,-2.81 -10.69,-3.25 -10.89,-3.70 -10.98,-4.17 -11.07,-4.65 -11.04,-5.14 -11.02,-5.63 -10.87,-6.09 -10.73,-6.56 -10.48,-6.98 -10.23,-7.39 -9.89,-7.74 -9.54,-8.08 -9.13,-8.34 -8.71,-8.59 -8.25,-8.74 -7.78,-8.88 -7.29,-8.92 -6.81,-8.95 -6.33,-8.86 -5.85,-8.77 -5.40,-8.58 -4.96,-8.38 -4.30,-7.61 -3.63,-6.85 -1.43,-4.06 0.76,-1.26 0.90,-1.15 1.04,-1.04 1.15,-0.90 1.26,-0.76 1.33,-0.60 1.41,-0.44 1.44,-0.26 1.47,-0.09 1.46,0.08 1.45,0.26 1.40,0.43 1.35,0.60 1.25,0.75 1.16,0.90 1.04,1.03 0.91,1.16 0.76,1.25 0.61,1.34 0.44,1.40 0.27,1.45 0.09,1.46 -0.08,1.47 -0.26,1.44 -0.43,1.41 -0.59,1.34 -0.76,1.26 -0.76,1.26 L -0.76,1.26 Z"></path></g><g transform="translate(3697.101211547851 455.49999237060547) rotate(0 55.99998474121094 16.000003814697266)" stroke="none"><path fill="#9c36b5" d="M 0.75,-1.13 Q 0.75,-1.13 4.86,0.17 8.97,1.49 13.97,4.64 18.97,7.79 26.75,12.59 34.53,17.40 42.47,22.33 50.40,27.27 57.59,30.99 64.79,34.72 70.94,35.07 77.09,35.42 83.14,30.75 89.18,26.07 94.06,19.78 98.95,13.48 101.97,7.47 104.98,1.46 103.54,-0.29 102.10,-2.04 94.97,1.02 87.84,4.09 83.55,7.18 79.26,10.27 77.39,11.63 75.52,12.99 75.33,13.09 75.14,13.19 74.93,13.22 74.72,13.25 74.51,13.22 74.30,13.18 74.11,13.08 73.93,12.98 73.78,12.83 73.64,12.67 73.55,12.48 73.46,12.28 73.44,12.07 73.42,11.86 73.46,11.65 73.51,11.45 73.62,11.27 73.73,11.08 73.89,10.95 74.06,10.81 74.25,10.73 74.45,10.66 74.66,10.65 74.88,10.63 75.08,10.69 75.28,10.75 75.46,10.87 75.63,10.99 75.76,11.16 75.89,11.33 75.96,11.53 76.02,11.73 76.02,11.95 76.02,12.16 75.95,12.36 75.88,12.56 75.75,12.73 75.62,12.90 75.45,13.02 75.27,13.13 75.07,13.19 74.86,13.25 74.65,13.23 74.44,13.22 74.24,13.14 74.04,13.06 73.88,12.92 73.72,12.78 73.61,12.60 73.50,12.42 73.46,12.21 73.41,12.00 73.44,11.79 73.46,11.58 73.55,11.39 73.64,11.20 73.79,11.04 73.94,10.89 73.94,10.89 73.94,10.89 75.76,9.47 77.59,8.05 81.99,4.60 86.40,1.14 94.32,-3.05 102.23,-7.26 106.44,-4.49 110.64,-1.72 108.00,8.31 105.36,18.36 99.63,25.49 93.90,32.62 85.80,37.89 77.71,43.17 69.52,42.57 61.34,41.97 53.74,38.05 46.14,34.14 38.21,29.20 30.28,24.27 22.38,19.39 14.49,14.51 9.65,11.11 4.82,7.70 2.03,4.42 -0.75,1.13 -0.88,1.03 -1.00,0.92 -1.10,0.78 -1.20,0.65 -1.26,0.50 -1.32,0.34 -1.34,0.18 -1.36,0.02 -1.35,-0.14 -1.33,-0.30 -1.27,-0.46 -1.22,-0.61 -1.13,-0.75 -1.03,-0.89 -0.91,-1.00 -0.79,-1.11 -0.65,-1.19 -0.50,-1.27 -0.34,-1.31 -0.18,-1.35 -0.02,-1.35 0.14,-1.36 0.30,-1.32 0.46,-1.28 0.61,-1.21 0.75,-1.13 0.75,-1.13 L 0.75,-1.13 Z"></path></g><g transform="translate(4383.101272583008 901.5000534057616) rotate(0 -46.999969482421875 104.000015258789)" stroke="none"><path fill="#9c36b5" d="M 0,-1.44 Q 0,-1.44 2.32,-2.20 4.65,-2.97 8.54,-2.01 12.43,-1.06 15.65,1.45 18.86,3.97 22.20,11.33 25.54,18.68 25.74,30.31 25.95,41.93 21.28,57.48 16.62,73.03 9.44,91.05 2.26,109.08 -6.58,126.61 -15.44,144.14 -25.66,159.19 -35.87,174.25 -46.26,184.76 -56.64,195.27 -67.29,200.24 -77.94,205.21 -86.00,207.04 -94.06,208.87 -101.55,209.46 -109.03,210.06 -112.14,210.40 -115.25,210.73 -115.46,210.73 -115.67,210.72 -115.87,210.64 -116.07,210.57 -116.23,210.43 -116.40,210.30 -116.51,210.11 -116.62,209.93 -116.67,209.73 -116.72,209.52 -116.70,209.31 -116.68,209.10 -116.59,208.90 -116.51,208.71 -116.36,208.55 -116.22,208.40 -116.03,208.29 -115.85,208.19 -115.64,208.16 -115.43,208.12 -115.22,208.15 -115.01,208.18 -114.82,208.28 -114.63,208.37 -114.48,208.53 -114.33,208.68 -114.24,208.87 -114.15,209.06 -114.12,209.27 -114.10,209.48 -114.14,209.69 -114.18,209.90 -114.29,210.08 -114.40,210.27 -114.56,210.41 -114.72,210.55 -114.91,210.63 -115.11,210.71 -115.32,210.72 -115.53,210.74 -115.74,210.68 -115.94,210.63 -116.12,210.51 -116.30,210.40 -116.43,210.23 -116.56,210.06 -116.63,209.86 -116.70,209.66 -116.71,209.45 -116.71,209.24 -116.64,209.03 -116.58,208.83 -116.45,208.66 -116.33,208.49 -116.15,208.37 -115.98,208.25 -115.77,208.19 -115.57,208.13 -115.57,208.13 -115.57,208.13 -112.47,207.70 -109.38,207.28 -102.26,206.08 -95.15,204.88 -87.80,202.48 -80.46,200.09 -71.09,195.12 -61.71,190.16 -52.05,179.99 -42.39,169.82 -32.50,155.16 -22.60,140.50 -13.91,123.30 -5.21,106.09 1.85,88.38 8.92,70.67 13.42,56.26 17.92,41.85 18.04,31.69 18.16,21.53 15.88,15.50 13.61,9.47 11.74,7.57 9.87,5.66 7.20,4.31 4.54,2.97 2.27,2.20 0,1.44 -0.17,1.42 -0.34,1.40 -0.50,1.33 -0.67,1.27 -0.81,1.17 -0.95,1.07 -1.07,0.94 -1.18,0.81 -1.26,0.66 -1.34,0.51 -1.39,0.34 -1.43,0.17 -1.43,-0.00 -1.43,-0.17 -1.39,-0.34 -1.34,-0.51 -1.26,-0.66 -1.18,-0.81 -1.07,-0.94 -0.95,-1.08 -0.81,-1.17 -0.67,-1.27 -0.50,-1.33 -0.34,-1.40 -0.17,-1.42 0.00,-1.44 0.00,-1.44 L 0,-1.44 Z"></path></g><g transform="translate(4273.101272583008 1079.5000839233396) rotate(0 21.00006103515625 38.999977111816406)" stroke="none"><path fill="#9c36b5" d="M 1.32,-0.44 Q 1.32,-0.44 2.68,1.73 4.03,3.91 1.99,7.35 -0.04,10.80 -3.65,15.82 -7.27,20.85 -10.93,27.74 -14.59,34.64 -13.35,43.95 -12.10,53.26 -5.21,59.08 1.66,64.90 8.71,67.41 15.76,69.91 25.67,68.76 35.57,67.61 43.40,64.07 51.23,60.53 52.84,55.50 54.44,50.46 53.75,46.32 53.06,42.18 53.06,41.97 53.06,41.75 53.12,41.55 53.18,41.35 53.31,41.18 53.43,41.00 53.61,40.88 53.78,40.76 53.98,40.70 54.19,40.64 54.40,40.64 54.61,40.65 54.81,40.73 55.01,40.80 55.17,40.93 55.34,41.07 55.45,41.25 55.57,41.43 55.62,41.63 55.67,41.84 55.65,42.05 55.63,42.26 55.54,42.46 55.46,42.65 55.31,42.81 55.17,42.97 54.99,43.07 54.80,43.18 54.59,43.21 54.38,43.25 54.17,43.22 53.96,43.19 53.77,43.10 53.58,43.00 53.43,42.85 53.28,42.70 53.19,42.51 53.10,42.32 53.07,42.11 53.04,41.90 53.08,41.69 53.13,41.48 53.23,41.29 53.34,41.11 53.50,40.97 53.66,40.83 53.85,40.75 54.05,40.66 54.26,40.65 54.47,40.63 54.68,40.68 54.88,40.74 55.06,40.85 55.24,40.97 55.37,41.13 55.50,41.30 55.57,41.50 55.65,41.70 55.65,41.70 55.65,41.70 56.59,46.38 57.54,51.06 56.43,57.88 55.33,64.70 45.95,70.12 36.58,75.55 24.94,76.54 13.31,77.53 4.85,74.26 -3.60,70.98 -11.55,63.20 -19.50,55.42 -20.69,43.55 -21.89,31.68 -17.76,23.92 -13.64,16.15 -9.76,11.04 -5.87,5.92 -3.80,4.45 -1.73,2.98 -1.53,1.71 -1.32,0.44 -1.36,0.27 -1.39,0.11 -1.38,-0.05 -1.38,-0.22 -1.33,-0.38 -1.28,-0.54 -1.20,-0.69 -1.11,-0.84 -1.00,-0.96 -0.88,-1.08 -0.74,-1.17 -0.59,-1.26 -0.43,-1.31 -0.27,-1.37 -0.11,-1.38 0.05,-1.39 0.22,-1.37 0.38,-1.34 0.54,-1.27 0.69,-1.21 0.83,-1.10 0.96,-1.00 1.07,-0.87 1.18,-0.74 1.25,-0.59 1.32,-0.44 1.32,-0.44 L 1.32,-0.44 Z"></path></g><g transform="translate(3727.101211547851 1509.5000076293943) rotate(0 -100.00007629394531 72.00000762939453)" stroke="none"><path fill="#9c36b5" d="M -0.42,-1.26 Q -0.42,-1.26 2.47,-1.57 5.36,-1.88 6.76,0.32 8.15,2.53 6.30,7.89 4.45,13.24 -4.00,24.68 -12.47,36.11 -24.78,49.03 -37.09,61.95 -52.12,76.07 -67.14,90.19 -84.59,103.20 -102.05,116.22 -118.84,125.30 -135.64,134.37 -150.00,138.65 -164.36,142.92 -174.29,143.18 -184.22,143.43 -190.81,139.04 -197.39,134.65 -200.05,133.06 -202.72,131.47 -202.88,131.33 -203.04,131.19 -203.15,131.01 -203.26,130.83 -203.31,130.62 -203.36,130.41 -203.34,130.20 -203.32,129.99 -203.23,129.80 -203.14,129.61 -202.99,129.45 -202.85,129.30 -202.66,129.19 -202.48,129.09 -202.27,129.06 -202.06,129.02 -201.85,129.06 -201.64,129.09 -201.45,129.19 -201.26,129.28 -201.11,129.44 -200.97,129.59 -200.88,129.78 -200.78,129.98 -200.76,130.19 -200.74,130.40 -200.78,130.61 -200.82,130.81 -200.93,131.00 -201.04,131.18 -201.20,131.32 -201.36,131.46 -201.56,131.54 -201.76,131.62 -201.97,131.63 -202.18,131.64 -202.39,131.59 -202.59,131.53 -202.77,131.41 -202.95,131.29 -203.07,131.13 -203.20,130.96 -203.27,130.76 -203.34,130.56 -203.34,130.34 -203.35,130.13 -203.28,129.93 -203.21,129.73 -203.08,129.56 -202.96,129.39 -202.78,129.27 -202.61,129.15 -202.40,129.09 -202.20,129.03 -201.99,129.04 -201.77,129.05 -201.58,129.13 -201.38,129.21 -201.38,129.21 -201.38,129.21 -198.70,130.78 -196.03,132.35 -190.05,135.41 -184.07,138.48 -175.25,137.32 -166.44,136.16 -152.94,131.70 -139.45,127.25 -123.16,118.49 -106.87,109.73 -89.77,97.01 -72.67,84.29 -57.81,70.33 -42.94,56.37 -30.93,43.81 -18.92,31.24 -10.75,20.60 -2.58,9.96 -0.45,6.67 1.67,3.38 1.60,1.48 1.53,-0.41 0.97,0.42 0.42,1.26 0.26,1.29 0.10,1.32 -0.05,1.31 -0.21,1.31 -0.36,1.26 -0.52,1.22 -0.65,1.14 -0.79,1.06 -0.91,0.95 -1.02,0.83 -1.11,0.70 -1.20,0.56 -1.25,0.41 -1.30,0.26 -1.31,0.10 -1.32,-0.05 -1.30,-0.21 -1.27,-0.37 -1.21,-0.51 -1.14,-0.66 -1.05,-0.79 -0.95,-0.92 -0.83,-1.02 -0.70,-1.12 -0.56,-1.19 -0.41,-1.26 -0.41,-1.26 L -0.42,-1.26 Z"></path></g><g transform="translate(3479.101181030273 1621.4999771118162) rotate(0 45.99998474121094 21.000022888183594)" stroke="none"><path fill="#9c36b5" d="M 0.62,1.25 Q 0.62,1.25 -1.20,3.33 -3.03,5.42 -4.10,6.30 -5.17,7.17 -2.95,10.54 -0.73,13.90 7.12,17.21 14.98,20.53 25.22,23.23 35.45,25.93 49.59,28.82 63.73,31.72 73.76,33.52 83.80,35.33 89.24,35.53 94.68,35.73 95.14,35.87 95.61,36.01 96.02,36.26 96.44,36.51 96.79,36.86 97.13,37.20 97.39,37.62 97.64,38.03 97.79,38.50 97.93,38.96 97.96,39.45 97.99,39.94 97.91,40.42 97.82,40.89 97.62,41.34 97.42,41.78 97.13,42.17 96.83,42.55 96.44,42.86 96.06,43.16 95.62,43.36 95.17,43.56 94.69,43.65 94.22,43.74 93.73,43.71 93.24,43.68 92.35,38.94 91.46,34.19 90.36,30.37 89.26,26.54 88.56,24.80 87.87,23.06 87.82,22.85 87.77,22.65 87.78,22.43 87.80,22.22 87.89,22.03 87.97,21.83 88.12,21.68 88.26,21.52 88.44,21.41 88.63,21.31 88.84,21.27 89.05,21.23 89.26,21.26 89.47,21.29 89.66,21.39 89.85,21.48 90.00,21.64 90.15,21.79 90.24,21.98 90.33,22.17 90.36,22.38 90.39,22.59 90.35,22.80 90.31,23.01 90.20,23.19 90.10,23.38 89.94,23.52 89.78,23.66 89.58,23.74 89.39,23.82 89.17,23.84 88.96,23.85 88.76,23.80 88.55,23.75 88.37,23.63 88.19,23.52 88.06,23.35 87.93,23.19 87.86,22.99 87.78,22.79 87.78,22.57 87.78,22.36 87.84,22.16 87.90,21.96 88.03,21.78 88.15,21.61 88.33,21.49 88.50,21.37 88.70,21.31 88.91,21.24 89.12,21.25 89.33,21.26 89.53,21.33 89.73,21.41 89.89,21.54 90.06,21.68 90.17,21.85 90.29,22.03 90.29,22.03 90.29,22.03 91.05,23.75 91.82,25.46 94.16,29.75 96.50,34.05 95.59,34.89 94.68,35.73 95.14,35.87 95.61,36.01 96.02,36.26 96.44,36.51 96.79,36.86 97.13,37.20 97.39,37.62 97.64,38.03 97.79,38.50 97.93,38.96 97.96,39.45 97.99,39.94 97.91,40.41 97.82,40.89 97.62,41.34 97.42,41.78 97.13,42.17 96.83,42.55 96.44,42.85 96.06,43.16 95.62,43.36 95.17,43.56 94.69,43.65 94.22,43.74 93.73,43.71 93.24,43.68 87.81,43.49 82.38,43.29 72.24,41.46 62.11,39.64 47.74,36.69 33.36,33.74 22.50,30.81 11.65,27.89 2.35,23.37 -6.93,18.86 -9.81,13.88 -12.69,8.89 -11.46,5.28 -10.23,1.67 -8.20,0.42 -6.16,-0.82 -3.39,-1.03 -0.62,-1.25 -0.46,-1.31 -0.30,-1.36 -0.14,-1.38 0.02,-1.40 0.19,-1.37 0.36,-1.35 0.51,-1.29 0.67,-1.22 0.81,-1.12 0.95,-1.03 1.05,-0.90 1.16,-0.77 1.24,-0.62 1.32,-0.47 1.35,-0.30 1.39,-0.14 1.39,0.02 1.38,0.19 1.34,0.35 1.30,0.52 1.21,0.67 1.13,0.81 1.02,0.94 0.90,1.06 0.76,1.16 0.62,1.25 0.62,1.25 L 0.62,1.25 Z"></path></g><g transform="translate(2613.101119995117 1577.5000381469724) rotate(0 73.00003051757812 54.000053405761605)" stroke="none"><path fill="#9c36b5" d="M -1.03,1.03 Q -1.03,1.03 -2.83,0.58 -4.62,0.13 -3.44,-0.62 -2.26,-1.38 -0.91,3.63 0.42,8.64 3.10,17.81 5.78,26.98 13.68,41.46 21.59,55.95 36.68,69.25 51.76,82.54 64.73,89.86 77.70,97.17 92.79,96.53 107.89,95.89 119.01,90.08 130.13,84.26 136.12,77.75 142.10,71.25 144.67,68.34 147.23,65.44 147.40,65.30 147.56,65.17 147.76,65.09 147.96,65.02 148.17,65.01 148.38,65.00 148.59,65.06 148.79,65.12 148.96,65.24 149.14,65.36 149.26,65.53 149.39,65.71 149.45,65.91 149.52,66.11 149.52,66.32 149.51,66.54 149.44,66.74 149.37,66.94 149.24,67.10 149.11,67.27 148.93,67.39 148.75,67.50 148.55,67.56 148.34,67.61 148.13,67.60 147.92,67.58 147.72,67.50 147.52,67.42 147.36,67.28 147.21,67.14 147.10,66.95 146.99,66.77 146.95,66.56 146.91,66.35 146.93,66.14 146.96,65.93 147.05,65.74 147.14,65.55 147.29,65.40 147.44,65.25 147.63,65.15 147.82,65.05 148.03,65.02 148.24,64.99 148.45,65.03 148.66,65.07 148.84,65.17 149.03,65.27 149.17,65.43 149.32,65.58 149.40,65.78 149.49,65.97 149.51,66.18 149.53,66.39 149.48,66.60 149.43,66.81 149.32,66.99 149.21,67.17 149.21,67.17 149.21,67.17 146.66,70.09 144.12,73.02 138.09,80.22 132.05,87.43 120.30,94.94 108.56,102.45 91.49,103.40 74.42,104.35 60.42,96.48 46.41,88.60 30.50,74.26 14.60,59.91 6.40,44.55 -1.78,29.19 -4.52,19.54 -7.25,9.89 -7.82,3.09 -8.40,-3.70 -6.71,-4.99 -5.03,-6.29 -2.50,-5.51 0.02,-4.73 0.53,-2.88 1.03,-1.03 1.14,-0.89 1.25,-0.75 1.32,-0.59 1.39,-0.43 1.43,-0.26 1.46,-0.08 1.45,0.08 1.44,0.26 1.38,0.43 1.33,0.60 1.24,0.75 1.15,0.90 1.02,1.02 0.90,1.15 0.75,1.24 0.60,1.33 0.43,1.38 0.26,1.44 0.08,1.45 -0.08,1.46 -0.26,1.43 -0.43,1.39 -0.59,1.32 -0.75,1.25 -0.89,1.14 -1.03,1.03 -1.03,1.03 L -1.03,1.03 Z"></path></g><g transform="translate(2585.101089477539 1593.5000228881834) rotate(0 40 -14.000015258789062)" stroke="none"><path fill="#9c36b5" d="M -1.33,0 Q -1.33,0 -2.11,-1.72 -2.89,-3.44 -2.85,-3.79 -2.80,-4.14 -2.68,-4.46 -2.56,-4.79 -2.36,-5.08 -2.16,-5.36 -1.90,-5.59 -1.64,-5.83 -1.33,-5.99 -1.02,-6.15 -0.68,-6.23 -0.34,-6.32 0.00,-6.32 0.34,-6.32 0.68,-6.23 1.02,-6.15 1.33,-5.99 1.64,-5.83 1.90,-5.59 2.16,-5.36 2.36,-5.08 2.56,-4.79 2.68,-4.46 2.80,-4.14 2.85,-3.79 2.89,-3.44 1.00,-1.34 -0.88,0.75 -4.11,4.60 -7.34,8.44 -11.76,14.13 -16.18,19.82 -19.20,23.92 -22.23,28.02 -22.42,28.69 -22.62,29.37 -22.94,29.71 -23.26,30.05 -23.66,30.31 -24.05,30.56 -24.49,30.72 -24.94,30.87 -25.41,30.91 -25.87,30.96 -26.34,30.89 -26.80,30.81 -27.24,30.64 -27.67,30.46 -28.05,30.18 -28.43,29.90 -28.73,29.54 -29.03,29.18 -29.24,28.76 -29.44,28.33 -29.54,27.87 -29.64,27.41 -29.63,26.94 -29.61,26.47 -29.49,26.02 -29.36,25.57 -29.13,25.16 -28.90,24.75 -26.81,20.69 -24.73,16.63 -20.94,8.01 -17.15,-0.60 -14.45,-9.84 -11.75,-19.07 -8.85,-29.40 -5.95,-39.73 -3.17,-46.69 -0.40,-53.65 3.23,-54.35 6.87,-55.05 13.54,-49.70 20.21,-44.35 29.48,-36.49 38.74,-28.62 48.83,-21.95 58.92,-15.27 69.80,-9.46 80.68,-3.64 88.77,-3.35 96.86,-3.06 100.42,-4.22 103.98,-5.38 105.59,-5.89 107.20,-6.40 107.41,-6.43 107.62,-6.47 107.83,-6.44 108.04,-6.41 108.23,-6.31 108.42,-6.22 108.57,-6.07 108.72,-5.91 108.81,-5.72 108.90,-5.53 108.93,-5.32 108.95,-5.11 108.91,-4.90 108.87,-4.69 108.76,-4.51 108.66,-4.33 108.50,-4.19 108.34,-4.05 108.14,-3.96 107.94,-3.88 107.73,-3.87 107.52,-3.85 107.31,-3.91 107.11,-3.96 106.93,-4.08 106.75,-4.19 106.62,-4.36 106.49,-4.53 106.42,-4.73 106.35,-4.93 106.35,-5.14 106.34,-5.35 106.41,-5.55 106.47,-5.76 106.60,-5.93 106.72,-6.10 106.90,-6.22 107.07,-6.34 107.27,-6.40 107.48,-6.46 107.69,-6.45 107.90,-6.45 108.10,-6.37 108.30,-6.30 108.46,-6.16 108.63,-6.03 108.74,-5.85 108.85,-5.66 108.90,-5.46 108.95,-5.25 108.93,-5.04 108.91,-4.83 108.83,-4.63 108.74,-4.44 108.60,-4.28 108.45,-4.13 108.27,-4.02 108.08,-3.92 108.08,-3.92 108.08,-3.92 106.51,-3.30 104.94,-2.68 101.00,-1.18 97.07,0.32 87.53,1.45 77.99,2.59 66.33,-3.12 54.67,-8.84 44.20,-15.77 33.73,-22.71 24.39,-30.63 15.05,-38.56 10.40,-43.30 5.74,-48.04 4.40,-48.14 3.05,-48.23 2.20,-42.95 1.36,-37.67 -1.54,-27.30 -4.44,-16.93 -7.29,-7.24 -10.14,2.45 -14.00,11.31 -17.86,20.16 -20.24,24.77 -22.62,29.37 -22.94,29.71 -23.26,30.05 -23.65,30.31 -24.05,30.56 -24.49,30.72 -24.94,30.87 -25.41,30.91 -25.87,30.96 -26.34,30.89 -26.80,30.82 -27.24,30.64 -27.67,30.46 -28.05,30.18 -28.43,29.90 -28.73,29.54 -29.03,29.18 -29.24,28.76 -29.44,28.33 -29.54,27.87 -29.64,27.41 -29.63,26.94 -29.61,26.48 -29.49,26.02 -29.36,25.57 -29.13,25.16 -28.90,24.75 -28.77,24.16 -28.65,23.57 -25.50,19.28 -22.36,14.99 -17.68,9.06 -13.01,3.13 -8.36,-1.42 -3.71,-5.98 -3.30,-4.71 -2.89,-3.44 -2.85,-3.79 -2.80,-4.14 -2.68,-4.46 -2.56,-4.79 -2.36,-5.08 -2.16,-5.36 -1.90,-5.59 -1.64,-5.83 -1.33,-5.99 -1.02,-6.15 -0.68,-6.23 -0.34,-6.32 -0.00,-6.32 0.34,-6.32 0.68,-6.23 1.02,-6.15 1.33,-5.99 1.64,-5.83 1.90,-5.59 2.16,-5.36 2.36,-5.08 2.56,-4.79 2.68,-4.46 2.80,-4.14 2.85,-3.79 2.89,-3.44 2.11,-1.72 1.33,0 1.31,0.15 1.29,0.31 1.23,0.46 1.17,0.61 1.08,0.75 0.99,0.88 0.87,0.98 0.75,1.09 0.61,1.17 0.47,1.24 0.31,1.28 0.16,1.32 -0.00,1.32 -0.16,1.32 -0.31,1.28 -0.47,1.24 -0.61,1.17 -0.75,1.09 -0.87,0.98 -0.99,0.88 -1.08,0.75 -1.17,0.61 -1.23,0.46 -1.29,0.31 -1.31,0.15 -1.33,-0.00 -1.33,-0.00 L -1.33,0 Z"></path></g><g transform="translate(2199.101104736328 1093.5000228881836) rotate(0 -7.999992370605526 97.99999237060547)" stroke="none"><path fill="#9c36b5" d="M 0.93,0.93 Q 0.93,0.93 -0.21,3.15 -1.35,5.38 -3.90,13.19 -6.44,20.99 -9.90,34.14 -13.36,47.29 -17.09,71.15 -20.83,95.02 -21.86,117.11 -22.89,139.20 -20.61,154.59 -18.33,169.97 -13.40,177.31 -8.47,184.65 -4.00,186.29 0.46,187.94 4.05,186.55 7.64,185.15 9.32,184.47 11.01,183.79 11.22,183.74 11.42,183.70 11.64,183.72 11.85,183.74 12.04,183.83 12.23,183.92 12.39,184.06 12.54,184.21 12.65,184.39 12.75,184.58 12.78,184.79 12.82,185.00 12.78,185.21 12.75,185.42 12.65,185.61 12.56,185.80 12.40,185.94 12.25,186.09 12.06,186.18 11.86,186.27 11.65,186.30 11.44,186.32 11.23,186.28 11.03,186.23 10.84,186.12 10.66,186.02 10.52,185.85 10.38,185.69 10.30,185.50 10.22,185.30 10.21,185.09 10.20,184.88 10.25,184.67 10.31,184.47 10.43,184.29 10.54,184.11 10.71,183.98 10.88,183.85 11.08,183.78 11.28,183.71 11.50,183.71 11.71,183.71 11.91,183.78 12.11,183.84 12.28,183.97 12.45,184.10 12.57,184.27 12.69,184.45 12.75,184.65 12.81,184.86 12.80,185.07 12.79,185.28 12.71,185.48 12.63,185.68 12.50,185.84 12.36,186.00 12.18,186.11 12.00,186.22 12.00,186.22 12.00,186.22 10.32,186.92 8.63,187.61 4.30,189.44 -0.03,191.27 -6.10,189.68 -12.17,188.09 -18.50,179.70 -24.84,171.31 -27.41,155.10 -29.99,138.89 -28.92,116.40 -27.85,93.91 -23.93,69.70 -20.02,45.49 -16.30,32.11 -12.58,18.73 -9.06,10.12 -5.54,1.51 -3.23,0.29 -0.93,-0.93 -0.80,-1.02 -0.68,-1.12 -0.53,-1.19 -0.39,-1.25 -0.23,-1.28 -0.07,-1.31 0.07,-1.30 0.23,-1.29 0.38,-1.24 0.54,-1.20 0.67,-1.11 0.81,-1.03 0.92,-0.92 1.03,-0.81 1.11,-0.67 1.20,-0.54 1.24,-0.38 1.29,-0.23 1.30,-0.07 1.31,0.07 1.28,0.23 1.25,0.39 1.19,0.53 1.12,0.68 1.02,0.80 0.93,0.93 0.93,0.93 L 0.93,0.93 Z"></path></g><g transform="translate(2173.101119995117 1131.500015258789) rotate(0 29.999999999999943 -21.000022888183594)" stroke="none"><path fill="#9c36b5" d="M -1.42,0 Q -1.42,0 -1.76,-2.29 -2.10,-4.59 -1.95,-6.20 -1.79,-7.80 -3.89,-5.71 -6.00,-3.62 -11.15,-0.09 -16.30,3.44 -21.25,7.76 -26.20,12.07 -29.20,14.68 -32.20,17.28 -32.10,19.07 -32.00,20.86 -32.31,21.12 -32.62,21.38 -32.98,21.56 -33.34,21.74 -33.73,21.83 -34.13,21.91 -34.53,21.90 -34.93,21.89 -35.32,21.79 -35.71,21.68 -36.06,21.49 -36.41,21.29 -36.70,21.02 -37.00,20.74 -37.22,20.41 -37.44,20.07 -37.57,19.69 -37.71,19.31 -37.75,18.91 -37.78,18.51 -37.73,18.11 -37.67,17.71 -37.52,17.34 -37.36,16.97 -37.13,16.64 -36.89,16.32 -32.46,13.12 -28.03,9.93 -21.82,3.66 -15.61,-2.59 -10.22,-10.86 -4.83,-19.13 -0.25,-27.28 4.32,-35.43 7.32,-42.28 10.31,-49.12 14.25,-54.81 18.18,-60.51 25.04,-62.66 31.90,-64.81 39.32,-60.21 46.73,-55.61 53.93,-45.83 61.13,-36.06 66.49,-24.29 71.85,-12.51 75.69,-3.00 79.53,6.51 82.94,10.85 86.35,15.19 89.99,15.13 93.63,15.08 95.43,14.99 97.23,14.90 97.44,14.92 97.65,14.94 97.85,15.02 98.04,15.11 98.20,15.25 98.36,15.39 98.47,15.57 98.57,15.76 98.61,15.97 98.65,16.18 98.62,16.39 98.59,16.60 98.50,16.79 98.40,16.98 98.25,17.13 98.10,17.28 97.91,17.37 97.72,17.47 97.51,17.50 97.30,17.52 97.09,17.48 96.88,17.44 96.70,17.34 96.51,17.24 96.37,17.08 96.23,16.92 96.15,16.72 96.06,16.53 96.05,16.32 96.03,16.11 96.08,15.90 96.13,15.69 96.25,15.51 96.36,15.33 96.53,15.20 96.69,15.07 96.89,15.00 97.09,14.92 97.30,14.92 97.51,14.91 97.72,14.97 97.92,15.04 98.09,15.16 98.27,15.28 98.39,15.46 98.51,15.63 98.58,15.83 98.64,16.03 98.63,16.25 98.63,16.46 98.55,16.66 98.48,16.86 98.35,17.02 98.21,17.19 98.04,17.30 97.86,17.42 97.65,17.47 97.44,17.52 97.44,17.52 97.44,17.52 95.65,17.72 93.86,17.93 89.04,18.57 84.22,19.20 78.54,14.34 72.87,9.48 68.87,0.06 64.87,-9.36 59.90,-20.50 54.93,-31.65 48.65,-40.62 42.36,-49.60 36.99,-53.95 31.62,-58.29 27.35,-57.13 23.07,-55.96 19.74,-51.16 16.41,-46.35 13.13,-39.31 9.86,-32.28 5.10,-24.01 0.33,-15.73 -5.43,-7.00 -11.20,1.71 -17.72,8.39 -24.24,15.07 -28.12,17.97 -32.00,20.86 -32.31,21.12 -32.62,21.38 -32.98,21.56 -33.34,21.74 -33.73,21.83 -34.13,21.91 -34.53,21.90 -34.93,21.89 -35.32,21.79 -35.71,21.68 -36.06,21.49 -36.41,21.29 -36.70,21.02 -37.00,20.74 -37.22,20.41 -37.44,20.07 -37.57,19.69 -37.71,19.31 -37.75,18.91 -37.78,18.51 -37.73,18.11 -37.67,17.71 -37.52,17.34 -37.36,16.97 -37.13,16.64 -36.89,16.32 -37.40,16.21 -37.92,16.10 -34.24,11.53 -30.56,6.96 -25.22,2.51 -19.87,-1.93 -14.32,-5.49 -8.77,-9.06 -4.86,-10.53 -0.95,-12.01 0.41,-10.95 1.79,-9.90 1.95,-7.25 2.10,-4.59 1.76,-2.29 1.42,0 1.40,0.17 1.38,0.34 1.32,0.50 1.26,0.66 1.16,0.80 1.06,0.94 0.94,1.06 0.81,1.17 0.65,1.25 0.50,1.33 0.33,1.37 0.17,1.41 -0.00,1.41 -0.17,1.41 -0.33,1.37 -0.50,1.33 -0.65,1.25 -0.81,1.17 -0.94,1.06 -1.06,0.94 -1.16,0.80 -1.26,0.66 -1.32,0.50 -1.38,0.34 -1.40,0.17 -1.42,-0.00 -1.42,-0.00 L -1.42,0 Z"></path></g><g transform="translate(2297.101058959961 745.500030517578) rotate(0 -35 79.99999999999994)" stroke="none"><path fill="#9c36b5" d="M 0,1.41 Q 0,1.41 -2.60,2.52 -5.20,3.64 -7.73,6.18 -10.27,8.72 -14.80,16.37 -19.33,24.03 -25.93,38.21 -32.53,52.40 -39.95,69.94 -47.38,87.49 -52.79,104.01 -58.21,120.54 -60.08,131.61 -61.95,142.67 -59.73,147.27 -57.51,151.87 -57.59,152.17 -57.67,152.46 -57.82,152.72 -57.96,152.99 -58.17,153.21 -58.38,153.43 -58.63,153.60 -58.89,153.76 -59.18,153.86 -59.46,153.96 -59.76,153.99 -60.07,154.02 -60.37,153.97 -60.67,153.93 -60.95,153.81 -61.23,153.70 -61.47,153.52 -61.72,153.34 -61.91,153.11 -62.11,152.87 -62.24,152.60 -62.38,152.33 -62.44,152.03 -62.51,151.73 -62.50,151.43 -62.49,151.13 -58.21,148.06 -53.92,144.99 -52.45,143.84 -50.98,142.68 -50.79,142.58 -50.61,142.48 -50.40,142.44 -50.19,142.40 -49.98,142.43 -49.77,142.46 -49.58,142.56 -49.39,142.65 -49.24,142.80 -49.09,142.95 -49.00,143.14 -48.90,143.34 -48.88,143.55 -48.85,143.76 -48.89,143.97 -48.93,144.17 -49.04,144.36 -49.15,144.54 -49.30,144.68 -49.46,144.82 -49.66,144.91 -49.86,144.99 -50.07,145.00 -50.28,145.02 -50.48,144.97 -50.69,144.91 -50.87,144.80 -51.05,144.68 -51.18,144.52 -51.31,144.35 -51.38,144.15 -51.45,143.95 -51.46,143.74 -51.46,143.52 -51.40,143.32 -51.34,143.12 -51.21,142.95 -51.08,142.78 -50.91,142.65 -50.74,142.53 -50.53,142.47 -50.33,142.41 -50.12,142.42 -49.91,142.42 -49.71,142.50 -49.51,142.57 -49.34,142.71 -49.18,142.84 -49.07,143.02 -48.95,143.20 -48.90,143.41 -48.85,143.62 -48.87,143.83 -48.89,144.04 -48.98,144.23 -49.06,144.43 -49.20,144.58 -49.35,144.74 -49.35,144.74 -49.35,144.74 -50.81,145.91 -52.27,147.08 -54.89,149.48 -57.51,151.87 -57.59,152.17 -57.67,152.46 -57.82,152.72 -57.96,152.99 -58.17,153.21 -58.38,153.43 -58.63,153.60 -58.89,153.76 -59.17,153.86 -59.46,153.96 -59.76,153.99 -60.07,154.02 -60.37,153.97 -60.67,153.93 -60.95,153.81 -61.23,153.70 -61.47,153.52 -61.72,153.34 -61.91,153.11 -62.11,152.87 -62.24,152.60 -62.38,152.33 -62.44,152.03 -62.51,151.73 -62.50,151.43 -62.49,151.13 -65.68,146.94 -68.87,142.75 -67.25,130.44 -65.62,118.13 -60.11,101.28 -54.59,84.44 -47.12,66.76 -39.64,49.09 -32.84,34.52 -26.03,19.95 -20.67,11.36 -15.31,2.77 -10.80,-0.43 -6.29,-3.64 -3.14,-2.52 0,-1.41 0.16,-1.39 0.33,-1.37 0.49,-1.31 0.65,-1.25 0.79,-1.15 0.93,-1.05 1.05,-0.93 1.16,-0.80 1.24,-0.65 1.32,-0.50 1.36,-0.33 1.40,-0.17 1.40,0.00 1.40,0.17 1.36,0.33 1.32,0.50 1.24,0.65 1.16,0.80 1.05,0.93 0.93,1.05 0.79,1.15 0.65,1.25 0.49,1.31 0.33,1.37 0.16,1.39 -0.00,1.41 -0.00,1.41 L 0,1.41 Z"></path></g><g transform="translate(2209.101028442383 801.500015258789) rotate(0 60.99998474121094 -52.99999237060547)" stroke="none"><path fill="#9c36b5" d="M -0.77,-1.16 Q -0.77,-1.16 0.63,-2.78 2.04,-4.39 7.70,-9.54 13.36,-14.68 24.42,-24.91 35.48,-35.13 49.40,-48.10 63.32,-61.06 76.18,-72.35 89.03,-83.64 97.47,-90.79 105.91,-97.95 112.23,-98.09 118.55,-98.23 120.06,-94.29 121.57,-90.36 120.45,-82.30 119.33,-74.24 117.07,-64.68 114.81,-55.12 112.63,-45.41 110.46,-35.70 108.62,-28.22 106.78,-20.73 106.75,-16.99 106.73,-13.25 106.82,-13.05 106.91,-12.86 106.93,-12.65 106.96,-12.44 106.92,-12.23 106.87,-12.02 106.76,-11.84 106.66,-11.66 106.50,-11.52 106.34,-11.38 106.14,-11.30 105.94,-11.22 105.73,-11.20 105.52,-11.19 105.31,-11.24 105.11,-11.30 104.93,-11.42 104.75,-11.53 104.62,-11.70 104.49,-11.87 104.42,-12.07 104.35,-12.27 104.35,-12.48 104.35,-12.69 104.41,-12.90 104.48,-13.10 104.61,-13.27 104.73,-13.44 104.91,-13.56 105.08,-13.68 105.29,-13.74 105.49,-13.80 105.70,-13.79 105.92,-13.78 106.11,-13.71 106.31,-13.63 106.48,-13.49 106.64,-13.36 106.75,-13.18 106.86,-13.00 106.91,-12.79 106.96,-12.58 106.94,-12.37 106.92,-12.16 106.83,-11.96 106.74,-11.77 106.60,-11.62 106.45,-11.46 106.27,-11.36 106.08,-11.26 105.87,-11.22 105.66,-11.18 105.45,-11.21 105.24,-11.25 105.05,-11.34 104.86,-11.44 104.72,-11.59 104.57,-11.75 104.57,-11.75 104.57,-11.75 103.06,-16.74 101.55,-21.73 102.65,-29.44 103.76,-37.15 105.79,-46.97 107.82,-56.78 110.05,-66.10 112.28,-75.42 113.62,-82.03 114.95,-88.63 114.12,-92.15 113.28,-95.66 111.38,-94.38 109.47,-93.09 101.26,-86.08 93.05,-79.06 80.26,-67.83 67.47,-56.60 53.53,-43.63 39.58,-30.66 28.37,-20.46 17.17,-10.26 11.01,-5.23 4.85,-0.20 2.81,0.48 0.77,1.16 0.62,1.23 0.47,1.31 0.30,1.34 0.14,1.38 -0.02,1.38 -0.19,1.38 -0.35,1.33 -0.51,1.29 -0.66,1.21 -0.81,1.13 -0.93,1.02 -1.05,0.90 -1.15,0.76 -1.24,0.62 -1.30,0.46 -1.35,0.31 -1.37,0.14 -1.39,-0.02 -1.37,-0.18 -1.34,-0.35 -1.28,-0.51 -1.22,-0.66 -1.12,-0.80 -1.02,-0.94 -0.90,-1.05 -0.77,-1.16 -0.77,-1.16 L -0.77,-1.16 Z"></path></g><g transform="translate(2509.101028442383 527.500114440918) rotate(0 109.99999999999989 -56.00006103515619)" stroke="none"><path fill="#9c36b5" d="M 0.18,1.32 Q 0.18,1.32 -3.93,2.56 -8.05,3.79 -8.37,3.81 -8.69,3.83 -9.10,3.83 -9.50,3.84 -9.90,3.75 -10.30,3.66 -10.66,3.48 -11.03,3.30 -11.34,3.04 -11.65,2.78 -11.88,2.45 -12.12,2.12 -12.27,1.74 -12.43,1.36 -12.48,0.96 -12.54,0.55 -12.50,0.15 -12.46,-0.25 -12.32,-0.63 -12.19,-1.01 -11.96,-1.35 -11.74,-1.69 -11.44,-1.97 -11.14,-2.24 -10.79,-2.44 -10.43,-2.64 -10.04,-2.74 -9.64,-2.85 -4.87,-6.27 -0.09,-9.68 12.04,-17.04 24.18,-24.40 43.70,-36.14 63.21,-47.88 89.99,-62.11 116.77,-76.34 143.24,-87.55 169.71,-98.76 187.65,-103.97 205.59,-109.18 214.85,-104.70 224.10,-100.22 222.60,-94.28 221.10,-88.35 220.57,-85.87 220.03,-83.40 219.96,-83.20 219.88,-83.00 219.75,-82.84 219.61,-82.67 219.43,-82.56 219.25,-82.45 219.04,-82.40 218.84,-82.35 218.62,-82.37 218.41,-82.39 218.22,-82.48 218.02,-82.56 217.87,-82.71 217.71,-82.85 217.61,-83.04 217.51,-83.22 217.47,-83.43 217.43,-83.64 217.46,-83.85 217.49,-84.06 217.59,-84.25 217.69,-84.44 217.84,-84.59 217.99,-84.74 218.18,-84.83 218.38,-84.92 218.59,-84.95 218.80,-84.97 219.01,-84.93 219.21,-84.89 219.40,-84.78 219.58,-84.67 219.72,-84.51 219.86,-84.35 219.94,-84.16 220.02,-83.96 220.04,-83.75 220.05,-83.54 220.00,-83.33 219.95,-83.13 219.83,-82.95 219.71,-82.77 219.54,-82.64 219.38,-82.51 219.18,-82.44 218.98,-82.37 218.76,-82.37 218.55,-82.36 218.35,-82.43 218.15,-82.49 217.98,-82.62 217.81,-82.74 217.68,-82.92 217.56,-83.09 217.50,-83.30 217.44,-83.50 217.45,-83.71 217.46,-83.93 217.46,-83.92 217.46,-83.92 217.94,-86.41 218.42,-88.90 219.31,-94.63 220.20,-100.37 213.43,-101.70 206.66,-103.03 189.60,-97.57 172.53,-92.12 146.41,-80.92 120.28,-69.73 93.67,-55.60 67.05,-41.47 47.52,-29.77 27.98,-18.08 15.89,-10.89 3.80,-3.69 -2.44,0.06 -8.69,3.83 -9.10,3.83 -9.50,3.84 -9.90,3.75 -10.30,3.66 -10.66,3.48 -11.02,3.30 -11.34,3.04 -11.65,2.78 -11.88,2.45 -12.12,2.12 -12.27,1.74 -12.43,1.36 -12.48,0.96 -12.54,0.55 -12.50,0.15 -12.46,-0.24 -12.32,-0.63 -12.19,-1.01 -11.96,-1.35 -11.74,-1.69 -11.44,-1.97 -11.14,-2.24 -10.79,-2.44 -10.43,-2.64 -10.04,-2.74 -9.64,-2.85 -8.84,-2.17 -8.04,-1.49 -4.11,-1.41 -0.18,-1.32 -0.02,-1.33 0.13,-1.33 0.29,-1.30 0.44,-1.26 0.59,-1.19 0.73,-1.12 0.86,-1.01 0.98,-0.91 1.08,-0.78 1.17,-0.64 1.23,-0.49 1.29,-0.34 1.31,-0.18 1.34,-0.02 1.32,0.13 1.31,0.29 1.25,0.44 1.20,0.59 1.11,0.73 1.02,0.86 0.90,0.97 0.78,1.08 0.64,1.16 0.50,1.24 0.34,1.28 0.18,1.32 0.18,1.32 L 0.18,1.32 Z"></path></g><g transform="translate(2723.1009674072266 367.5000381469727) rotate(0 33.000030517578125 52.0000076293945)" stroke="none"><path fill="#9c36b5" d="M -0.98,-0.98 Q -0.98,-0.98 -0.64,-3.08 -0.31,-5.19 5.47,-7.31 11.26,-9.42 20.80,-10.21 30.33,-10.99 40.52,-8.94 50.71,-6.88 63.00,0.67 75.29,8.23 80.87,19.79 86.46,31.35 83.38,44.48 80.30,57.61 69.85,68.08 59.41,78.56 44.18,86.05 28.95,93.54 13.70,98.94 -1.54,104.34 -7.86,106.86 -14.19,109.38 -14.39,109.43 -14.60,109.48 -14.81,109.46 -15.02,109.44 -15.22,109.35 -15.41,109.26 -15.57,109.12 -15.72,108.98 -15.82,108.79 -15.92,108.60 -15.96,108.39 -16.00,108.18 -15.97,107.97 -15.93,107.76 -15.84,107.57 -15.74,107.39 -15.59,107.24 -15.43,107.09 -15.24,107.00 -15.05,106.91 -14.84,106.88 -14.63,106.86 -14.42,106.90 -14.21,106.94 -14.03,107.05 -13.85,107.16 -13.71,107.32 -13.57,107.48 -13.49,107.68 -13.41,107.87 -13.39,108.09 -13.38,108.30 -13.43,108.50 -13.49,108.71 -13.60,108.89 -13.72,109.06 -13.89,109.19 -14.06,109.32 -14.26,109.39 -14.46,109.46 -14.67,109.47 -14.88,109.47 -15.09,109.40 -15.29,109.34 -15.46,109.21 -15.63,109.08 -15.75,108.91 -15.87,108.73 -15.93,108.53 -15.99,108.32 -15.98,108.11 -15.97,107.90 -15.89,107.70 -15.82,107.50 -15.68,107.34 -15.55,107.18 -15.36,107.07 -15.18,106.95 -15.18,106.95 -15.18,106.95 -8.91,104.30 -2.64,101.65 11.74,94.87 26.12,88.09 40.04,80.45 53.96,72.82 63.39,63.94 72.82,55.05 75.92,44.29 79.01,33.52 74.77,24.03 70.53,14.54 59.71,7.75 48.90,0.96 39.88,-0.99 30.86,-2.94 22.27,-2.33 13.69,-1.72 9.30,-0.56 4.91,0.59 2.94,0.78 0.98,0.98 0.85,1.08 0.71,1.19 0.56,1.25 0.41,1.32 0.24,1.35 0.08,1.38 -0.08,1.37 -0.25,1.36 -0.41,1.31 -0.57,1.26 -0.71,1.18 -0.85,1.09 -0.97,0.97 -1.09,0.85 -1.18,0.71 -1.26,0.57 -1.31,0.41 -1.36,0.25 -1.37,0.08 -1.38,-0.08 -1.35,-0.24 -1.32,-0.41 -1.25,-0.56 -1.19,-0.71 -1.08,-0.85 -0.98,-0.98 -0.98,-0.98 L -0.98,-0.98 Z"></path></g><g transform="translate(2031.1009979248047 1599.5001220703123) rotate(0 -0.9999847412109375 0.9999847412109375)" stroke="none"><path fill="#9c36b5" d="M 2.12,-0.66 Q 2.12,-0.66 2.15,-0.13 2.18,0.40 1.96,0.88 1.74,1.36 1.32,1.69 0.91,2.02 0.38,2.12 -0.13,2.21 -0.64,2.05 -1.14,1.90 -1.52,1.52 -1.90,1.14 -2.05,0.64 -2.21,0.13 -2.12,-0.38 -2.02,-0.91 -1.69,-1.32 -1.36,-1.74 -0.88,-1.96 -0.39,-2.18 0.13,-2.15 0.66,-2.11 1.11,-1.84 1.57,-1.56 1.84,-1.11 L 2.12,-0.66 Z"></path></g></svg>