<svg version="1.1" xmlns="http://www.w3.org/2000/svg" viewBox="0 0 6788.812408311107 2999.8904304715993" width="6788.812408311107" height="2999.8904304715993" filter="invert(93%) hue-rotate(180deg)">
  <!-- svg-source:excalidraw -->
  
  <defs>
    <style class="style-fonts">
      @font-face {
        font-family: "Virgil";
        src: url("https://excalidraw.com/Virgil.woff2");
      }
      @font-face {
        font-family: "Cascadia";
        src: url("https://excalidraw.com/Cascadia.woff2");
      }
    </style>
    
  </defs>
  <rect x="0" y="0" width="6788.812408311107" height="2999.8904304715993" fill="#ffffff"></rect><g transform="translate(2046.9299718986142 10) rotate(0 931.355712890625 67.5)"><text x="0" y="0" font-family="Virgil, Segoe UI Emoji" font-size="36px" fill="#1e1e1e" text-anchor="start" style="white-space: pre;" direction="ltr" dominant-baseline="text-before-edge">Necesito poder tomar dos números ( a y b ) y entregar el resultado de la diferencia entre ellos (a - b)</text><text x="0" y="45" font-family="Virgil, Segoe UI Emoji" font-size="36px" fill="#1e1e1e" text-anchor="start" style="white-space: pre;" direction="ltr" dominant-baseline="text-before-edge">Si los números son diferentes, entregar el resultado de la diferencia</text><text x="0" y="90" font-family="Virgil, Segoe UI Emoji" font-size="36px" fill="#1e1e1e" text-anchor="start" style="white-space: pre;" direction="ltr" dominant-baseline="text-before-edge">Si los números son iguales, entregar un mensaje que indique que son iguales</text></g><g transform="translate(2054.129923070489 232.80001831054688) rotate(0 377.4598693847656 225)"><text x="0" y="0" font-family="Virgil, Segoe UI Emoji" font-size="36px" fill="#1e1e1e" text-anchor="start" style="white-space: pre;" direction="ltr" dominant-baseline="text-before-edge">const evaluateDifference = (a, b) =&gt; {</text><text x="0" y="45" font-family="Virgil, Segoe UI Emoji" font-size="36px" fill="#1e1e1e" text-anchor="start" style="white-space: pre;" direction="ltr" dominant-baseline="text-before-edge">    let result = null</text><text x="0" y="90" font-family="Virgil, Segoe UI Emoji" font-size="36px" fill="#1e1e1e" text-anchor="start" style="white-space: pre;" direction="ltr" dominant-baseline="text-before-edge">    if( a - b !== 0 ){</text><text x="0" y="135" font-family="Virgil, Segoe UI Emoji" font-size="36px" fill="#1e1e1e" text-anchor="start" style="white-space: pre;" direction="ltr" dominant-baseline="text-before-edge">        result = a - b</text><text x="0" y="180" font-family="Virgil, Segoe UI Emoji" font-size="36px" fill="#1e1e1e" text-anchor="start" style="white-space: pre;" direction="ltr" dominant-baseline="text-before-edge">        return result</text><text x="0" y="225" font-family="Virgil, Segoe UI Emoji" font-size="36px" fill="#1e1e1e" text-anchor="start" style="white-space: pre;" direction="ltr" dominant-baseline="text-before-edge">    } else {</text><text x="0" y="270" font-family="Virgil, Segoe UI Emoji" font-size="36px" fill="#1e1e1e" text-anchor="start" style="white-space: pre;" direction="ltr" dominant-baseline="text-before-edge">        result = "Los números son iguales"</text><text x="0" y="315" font-family="Virgil, Segoe UI Emoji" font-size="36px" fill="#1e1e1e" text-anchor="start" style="white-space: pre;" direction="ltr" dominant-baseline="text-before-edge">        return result</text><text x="0" y="360" font-family="Virgil, Segoe UI Emoji" font-size="36px" fill="#1e1e1e" text-anchor="start" style="white-space: pre;" direction="ltr" dominant-baseline="text-before-edge">    }</text><text x="0" y="405" font-family="Virgil, Segoe UI Emoji" font-size="36px" fill="#1e1e1e" text-anchor="start" style="white-space: pre;" direction="ltr" dominant-baseline="text-before-edge">}</text></g><g transform="translate(2021.2656402890616 1031.8439377293441) rotate(0 377.4598693847656 225)"><text x="0" y="0" font-family="Virgil, Segoe UI Emoji" font-size="36px" fill="#1e1e1e" text-anchor="start" style="white-space: pre;" direction="ltr" dominant-baseline="text-before-edge">const evaluateDifference = (a, b) =&gt; {</text><text x="0" y="45" font-family="Virgil, Segoe UI Emoji" font-size="36px" fill="#1e1e1e" text-anchor="start" style="white-space: pre;" direction="ltr" dominant-baseline="text-before-edge">    let result = null</text><text x="0" y="90" font-family="Virgil, Segoe UI Emoji" font-size="36px" fill="#1e1e1e" text-anchor="start" style="white-space: pre;" direction="ltr" dominant-baseline="text-before-edge">    if( a - b !== 0 ){</text><text x="0" y="135" font-family="Virgil, Segoe UI Emoji" font-size="36px" fill="#1e1e1e" text-anchor="start" style="white-space: pre;" direction="ltr" dominant-baseline="text-before-edge">        result = a - b</text><text x="0" y="180" font-family="Virgil, Segoe UI Emoji" font-size="36px" fill="#1e1e1e" text-anchor="start" style="white-space: pre;" direction="ltr" dominant-baseline="text-before-edge">        return result</text><text x="0" y="225" font-family="Virgil, Segoe UI Emoji" font-size="36px" fill="#1e1e1e" text-anchor="start" style="white-space: pre;" direction="ltr" dominant-baseline="text-before-edge">    } else {</text><text x="0" y="270" font-family="Virgil, Segoe UI Emoji" font-size="36px" fill="#1e1e1e" text-anchor="start" style="white-space: pre;" direction="ltr" dominant-baseline="text-before-edge">        result = "Los números son iguales"</text><text x="0" y="315" font-family="Virgil, Segoe UI Emoji" font-size="36px" fill="#1e1e1e" text-anchor="start" style="white-space: pre;" direction="ltr" dominant-baseline="text-before-edge">        return result</text><text x="0" y="360" font-family="Virgil, Segoe UI Emoji" font-size="36px" fill="#1e1e1e" text-anchor="start" style="white-space: pre;" direction="ltr" dominant-baseline="text-before-edge">    }</text><text x="0" y="405" font-family="Virgil, Segoe UI Emoji" font-size="36px" fill="#1e1e1e" text-anchor="start" style="white-space: pre;" direction="ltr" dominant-baseline="text-before-edge">}</text></g><g transform="translate(2251.3800451408015 934.5166727701824) rotate(0 44.71198272705078 22.5)"><text x="0" y="0" font-family="Virgil, Segoe UI Emoji" font-size="36px" fill="#1e1e1e" text-anchor="start" style="white-space: pre;" direction="ltr" dominant-baseline="text-before-edge">Base</text></g><g transform="translate(2383.08911274556 847.3691791572953) rotate(0 117.71997833251953 22.5)"><text x="0" y="0" font-family="Virgil, Segoe UI Emoji" font-size="36px" fill="#1e1e1e" text-anchor="start" style="white-space: pre;" direction="ltr" dominant-baseline="text-before-edge">a = 9, b = 8</text></g><g transform="translate(3006.96093440981 955.2933509886091) rotate(0 237.85189819335938 22.5)"><text x="0" y="0" font-family="Virgil, Segoe UI Emoji" font-size="36px" fill="#1e1e1e" text-anchor="start" style="white-space: pre;" direction="ltr" dominant-baseline="text-before-edge">Aplicando falsys &amp; truthys</text></g><g transform="translate(2939.157608179741 1039.936017464285) rotate(0 377.4598693847656 225)"><text x="0" y="0" font-family="Virgil, Segoe UI Emoji" font-size="36px" fill="#1e1e1e" text-anchor="start" style="white-space: pre;" direction="ltr" dominant-baseline="text-before-edge">const evaluateDifference = (a, b) =&gt; {</text><text x="0" y="45" font-family="Virgil, Segoe UI Emoji" font-size="36px" fill="#1e1e1e" text-anchor="start" style="white-space: pre;" direction="ltr" dominant-baseline="text-before-edge">    let result = null</text><text x="0" y="90" font-family="Virgil, Segoe UI Emoji" font-size="36px" fill="#1e1e1e" text-anchor="start" style="white-space: pre;" direction="ltr" dominant-baseline="text-before-edge">    if( a - b ){</text><text x="0" y="135" font-family="Virgil, Segoe UI Emoji" font-size="36px" fill="#1e1e1e" text-anchor="start" style="white-space: pre;" direction="ltr" dominant-baseline="text-before-edge">        result = a - b</text><text x="0" y="180" font-family="Virgil, Segoe UI Emoji" font-size="36px" fill="#1e1e1e" text-anchor="start" style="white-space: pre;" direction="ltr" dominant-baseline="text-before-edge">        return result</text><text x="0" y="225" font-family="Virgil, Segoe UI Emoji" font-size="36px" fill="#1e1e1e" text-anchor="start" style="white-space: pre;" direction="ltr" dominant-baseline="text-before-edge">    } else {</text><text x="0" y="270" font-family="Virgil, Segoe UI Emoji" font-size="36px" fill="#1e1e1e" text-anchor="start" style="white-space: pre;" direction="ltr" dominant-baseline="text-before-edge">        result = "Los números son iguales"</text><text x="0" y="315" font-family="Virgil, Segoe UI Emoji" font-size="36px" fill="#1e1e1e" text-anchor="start" style="white-space: pre;" direction="ltr" dominant-baseline="text-before-edge">        return result</text><text x="0" y="360" font-family="Virgil, Segoe UI Emoji" font-size="36px" fill="#1e1e1e" text-anchor="start" style="white-space: pre;" direction="ltr" dominant-baseline="text-before-edge">    }</text><text x="0" y="405" font-family="Virgil, Segoe UI Emoji" font-size="36px" fill="#1e1e1e" text-anchor="start" style="white-space: pre;" direction="ltr" dominant-baseline="text-before-edge">}</text></g><g stroke-linecap="round" transform="translate(2135.4658174537217 1127.4512660969986) rotate(0 116.71886578409573 17.185607578795953)"><path d="M8.59 0 M8.59 0 C79.58 -0.46, 150.41 1.32, 224.84 0 M8.59 0 C66.21 1.07, 122.72 0.09, 224.84 0 M224.84 0 C228.59 1.22, 234.79 1.62, 233.44 8.59 M224.84 0 C230.16 -1.23, 231.4 1.73, 233.44 8.59 M233.44 8.59 C233.52 13.63, 232.51 16.35, 233.44 25.78 M233.44 8.59 C232.78 11.79, 234.11 15.48, 233.44 25.78 M233.44 25.78 C234.76 33.48, 229.37 34.46, 224.84 34.37 M233.44 25.78 C233.26 33.8, 229.1 32.82, 224.84 34.37 M224.84 34.37 C140.96 31.8, 57.49 34.57, 8.59 34.37 M224.84 34.37 C156.38 35.35, 85.38 34.77, 8.59 34.37 M8.59 34.37 C1.72 34.17, 1.18 29.96, 0 25.78 M8.59 34.37 C1.14 36.04, 0.68 32.44, 0 25.78 M0 25.78 C-1.71 20.46, 0.36 13.25, 0 8.59 M0 25.78 C0.63 19.51, 0.4 13.8, 0 8.59 M0 8.59 C-0.76 4.74, 3.09 0, 8.59 0 M0 8.59 C-0.78 2.33, 3.31 1.08, 8.59 0" stroke="#e03131" stroke-width="1" fill="none"></path></g><g stroke-linecap="round" transform="translate(3064.9201915950525 1140.3404854389805) rotate(0 60.86565481089417 15.037386144618722)"><path d="M7.52 0 M7.52 0 C35.49 -0.8, 63 0.27, 114.21 0 M7.52 0 C43.74 0.33, 81.76 0.74, 114.21 0 M114.21 0 C120.98 -0.54, 123.11 1.95, 121.73 7.52 M114.21 0 C119.34 -0.52, 122.03 2.01, 121.73 7.52 M121.73 7.52 C123.17 12.59, 123.16 19.83, 121.73 22.56 M121.73 7.52 C122.31 10.49, 122.19 13.38, 121.73 22.56 M121.73 22.56 C120.43 27.91, 119.69 29.51, 114.21 30.07 M121.73 22.56 C121.3 28.32, 117.37 28.32, 114.21 30.07 M114.21 30.07 C81.97 29.54, 51.27 31.43, 7.52 30.07 M114.21 30.07 C86.31 31.01, 58.88 30.87, 7.52 30.07 M7.52 30.07 C2.59 31.67, 1.93 27.62, 0 22.56 M7.52 30.07 C1.65 31.24, 0.88 28.77, 0 22.56 M0 22.56 C0.68 18.49, 0.96 12.07, 0 7.52 M0 22.56 C-0.7 19.18, 0.09 15.44, 0 7.52 M0 7.52 C0.94 1.01, 1.4 0.52, 7.52 0 M0 7.52 C-1.05 3.62, 1.76 2.1, 7.52 0" stroke="#e03131" stroke-width="1" fill="none"></path></g><g transform="translate(2944.620883911941 1544.2019084356705) rotate(0 493.9197998046875 67.5)"><text x="0" y="0" font-family="Virgil, Segoe UI Emoji" font-size="36px" fill="#e03131" text-anchor="start" style="white-space: pre;" direction="ltr" dominant-baseline="text-before-edge">Aplicando falsys &amp; truthys, puedo omitir la comparación</text><text x="0" y="45" font-family="Virgil, Segoe UI Emoji" font-size="36px" fill="#e03131" text-anchor="start" style="white-space: pre;" direction="ltr" dominant-baseline="text-before-edge">"!== 0" puesto que cualquier valor diferente de cero </text><text x="0" y="90" font-family="Virgil, Segoe UI Emoji" font-size="36px" fill="#e03131" text-anchor="start" style="white-space: pre;" direction="ltr" dominant-baseline="text-before-edge">se considera un truthy </text></g><g transform="translate(4134.407878139273 898.7975635693361) rotate(0 243.23391723632812 22.499999999999943)"><text x="0" y="0" font-family="Virgil, Segoe UI Emoji" font-size="36px" fill="#1e1e1e" text-anchor="start" style="white-space: pre;" direction="ltr" dominant-baseline="text-before-edge">Aplicando operador ternario</text></g><g transform="translate(4133.914816391089 979.143814492428) rotate(0 350.38787841796875 112.5)"><text x="0" y="0" font-family="Virgil, Segoe UI Emoji" font-size="36px" fill="#1e1e1e" text-anchor="start" style="white-space: pre;" direction="ltr" dominant-baseline="text-before-edge">const evaluateDifference = (a, b) =&gt; {</text><text x="0" y="45" font-family="Virgil, Segoe UI Emoji" font-size="36px" fill="#1e1e1e" text-anchor="start" style="white-space: pre;" direction="ltr" dominant-baseline="text-before-edge">    let result = null</text><text x="0" y="90" font-family="Virgil, Segoe UI Emoji" font-size="36px" fill="#1e1e1e" text-anchor="start" style="white-space: pre;" direction="ltr" dominant-baseline="text-before-edge">    </text><text x="0" y="135" font-family="Virgil, Segoe UI Emoji" font-size="36px" fill="#1e1e1e" text-anchor="start" style="white-space: pre;" direction="ltr" dominant-baseline="text-before-edge">    return result</text><text x="0" y="180" font-family="Virgil, Segoe UI Emoji" font-size="36px" fill="#1e1e1e" text-anchor="start" style="white-space: pre;" direction="ltr" dominant-baseline="text-before-edge">}</text></g><g transform="translate(4229.244299243252 1073.0303711938316) rotate(0 78.10198211669922 22.5)"><text x="0" y="0" font-family="Virgil, Segoe UI Emoji" font-size="36px" fill="#e03131" text-anchor="start" style="white-space: pre;" direction="ltr" dominant-baseline="text-before-edge">( a - b )</text></g><g stroke-linecap="round" transform="translate(2073.884161673489 1114.5622516232934) rotate(0 357.3171806768464 171.13991092399885)"><path d="M32 0 M32 0 C234.14 -1.11, 435.46 1.46, 682.63 0 M32 0 C199.28 3.14, 366.73 3.37, 682.63 0 M682.63 0 C705.59 -1.23, 714.94 7.05, 714.63 32 M682.63 0 C707.83 -2.19, 715.78 11.5, 714.63 32 M714.63 32 C715.63 115.74, 712.56 202.32, 714.63 310.28 M714.63 32 C715.97 111.14, 715.98 190.8, 714.63 310.28 M714.63 310.28 C715.52 328.52, 701.27 343.24, 682.63 342.28 M714.63 310.28 C716.01 332.61, 706.3 341.46, 682.63 342.28 M682.63 342.28 C522.33 343.68, 365.59 344.67, 32 342.28 M682.63 342.28 C498.2 343.47, 314.89 342.88, 32 342.28 M32 342.28 C7.52 340.46, -0.94 329.37, 0 310.28 M32 342.28 C8.28 345.96, 3.93 329.1, 0 310.28 M0 310.28 C-4.29 213.58, -6.87 116.07, 0 32 M0 310.28 C0.14 211.97, -1.5 113, 0 32 M0 32 C3.01 12.66, 13.4 -1.42, 32 0 M0 32 C0.16 10.22, 9.47 -0.3, 32 0" stroke="#2f9e44" stroke-width="4" fill="none"></path></g><g transform="translate(4414.347376331699 1071.9563151082837) rotate(0 473.3458557128906 22.5)"><text x="0" y="0" font-family="Virgil, Segoe UI Emoji" font-size="36px" fill="#2f9e44" text-anchor="start" style="white-space: pre;" direction="ltr" dominant-baseline="text-before-edge">? result = a - b : result = "Los números son iguales"</text></g><g transform="translate(3559.0060407225355 1253.4792780869584) rotate(0 30.07479960500757 2.1482214341772305)" stroke="none"><path fill="#2f9e44" d="M 0.38,-5.35 Q 0.38,-5.35 17.67,-4.17 34.97,-2.99 47.75,-1.96 60.52,-0.94 61.35,-0.74 62.17,-0.54 62.89,-0.09 63.61,0.35 64.15,1.00 64.69,1.66 64.99,2.46 65.29,3.25 65.33,4.10 65.36,4.95 65.12,5.76 64.87,6.58 64.38,7.27 63.90,7.97 63.21,8.47 62.52,8.97 61.71,9.23 60.91,9.49 60.06,9.47 59.21,9.46 58.40,9.17 57.60,8.89 56.94,8.36 56.27,7.84 55.80,7.13 55.34,6.41 55.13,5.59 54.91,4.77 54.97,3.92 55.03,3.07 55.36,2.29 55.69,1.51 56.25,0.87 56.81,0.23 57.55,-0.19 58.29,-0.61 59.12,-0.78 59.95,-0.95 60.79,-0.84 61.64,-0.74 62.40,-0.37 63.17,0.00 63.77,0.59 64.38,1.19 64.77,1.94 65.15,2.70 65.27,3.54 65.40,4.38 65.25,5.22 65.09,6.06 64.68,6.80 64.27,7.54 63.64,8.12 63.02,8.69 62.24,9.03 61.46,9.38 60.62,9.45 59.77,9.53 59.77,9.53 59.77,9.53 46.98,8.73 34.19,7.93 16.90,6.64 -0.38,5.35 -1.01,5.23 -1.65,5.11 -2.24,4.83 -2.82,4.56 -3.33,4.16 -3.83,3.75 -4.23,3.24 -4.62,2.72 -4.88,2.13 -5.14,1.54 -5.25,0.90 -5.36,0.26 -5.31,-0.38 -5.27,-1.02 -5.07,-1.64 -4.87,-2.25 -4.53,-2.80 -4.19,-3.35 -3.72,-3.81 -3.26,-4.26 -2.70,-4.59 -2.15,-4.92 -1.53,-5.10 -0.91,-5.29 -0.26,-5.32 0.38,-5.35 0.38,-5.35 L 0.38,-5.35 Z"></path></g><g stroke-linecap="round"><g transform="translate(4402.532431601427 1259.2078321570707) rotate(0 10.317430116348532 -68.23209139547782)"><path d="M2.42 1.84 C5.4 -20.27, 17.69 -110.83, 20.35 -134.26 M0.29 0.37 C2.82 -22.4, 16.36 -115.38, 19.05 -138.3" stroke="#2f9e44" stroke-width="4" fill="none"></path></g><g transform="translate(4402.532431601427 1259.2078321570707) rotate(0 10.317430116348532 -68.23209139547782)"><path d="M28.13 -106.54 C25.88 -120.63, 16.92 -132.08, 22.75 -134.66 M25.94 -109.66 C22.28 -119, 19.94 -127.24, 17.44 -138.78" stroke="#2f9e44" stroke-width="4" fill="none"></path></g><g transform="translate(4402.532431601427 1259.2078321570707) rotate(0 10.317430116348532 -68.23209139547782)"><path d="M7.78 -109.24 C13.41 -122.64, 12.36 -133.04, 22.75 -134.66 M5.6 -112.37 C8.26 -120.93, 12.22 -128.32, 17.44 -138.78" stroke="#2f9e44" stroke-width="4" fill="none"></path></g></g><mask></mask><g stroke-linecap="round"><g transform="translate(4696.90133065576 1255.4752157176395) rotate(0 9.756168162487938 -66.0843423525198)"><path d="M0.55 -1.31 C3.01 -24.42, 13.61 -113.88, 16.73 -136.32 M-2.6 4.15 C0.58 -17.27, 18.7 -110.02, 22.11 -132.84" stroke="#2f9e44" stroke-width="4" fill="none"></path></g><g transform="translate(4696.90133065576 1255.4752157176395) rotate(0 9.756168162487938 -66.0843423525198)"><path d="M25.48 -105.99 C24.53 -113.26, 23.13 -122.49, 18.49 -136.37 M25.53 -104.43 C26.6 -108.36, 26.78 -116.05, 20.54 -131.1" stroke="#2f9e44" stroke-width="4" fill="none"></path></g><g transform="translate(4696.90133065576 1255.4752157176395) rotate(0 9.756168162487938 -66.0843423525198)"><path d="M5.27 -109.54 C11.86 -115.57, 17.95 -123.48, 18.49 -136.37 M5.32 -107.97 C10.65 -111.49, 15.09 -118.43, 20.54 -131.1" stroke="#2f9e44" stroke-width="4" fill="none"></path></g></g><mask></mask><g transform="translate(4386.7789898559295 1292.146881481364) rotate(0 21.689987182617188 22.5)"><text x="0" y="0" font-family="Virgil, Segoe UI Emoji" font-size="36px" fill="#2f9e44" text-anchor="start" style="white-space: pre;" direction="ltr" dominant-baseline="text-before-edge">if </text></g><g transform="translate(4654.587827318632 1280.6897187095994) rotate(0 34.199974060058594 22.5)"><text x="0" y="0" font-family="Virgil, Segoe UI Emoji" font-size="36px" fill="#2f9e44" text-anchor="start" style="white-space: pre;" direction="ltr" dominant-baseline="text-before-edge">else</text></g><g transform="translate(2965.4255803713904 1844.5274796217413) rotate(0 246.3118896484375 22.5)"><text x="0" y="0" font-family="Virgil, Segoe UI Emoji" font-size="36px" fill="#1e1e1e" text-anchor="start" style="white-space: pre;" direction="ltr" dominant-baseline="text-before-edge">Aplicando Asignación directa</text></g><g transform="translate(2964.932518623207 1924.873730544833) rotate(0 350.38787841796875 90)"><text x="0" y="0" font-family="Virgil, Segoe UI Emoji" font-size="36px" fill="#1e1e1e" text-anchor="start" style="white-space: pre;" direction="ltr" dominant-baseline="text-before-edge">const evaluateDifference = (a, b) =&gt; {</text><text x="0" y="45" font-family="Virgil, Segoe UI Emoji" font-size="36px" fill="#1e1e1e" text-anchor="start" style="white-space: pre;" direction="ltr" dominant-baseline="text-before-edge">    let result = </text><text x="0" y="90" font-family="Virgil, Segoe UI Emoji" font-size="36px" fill="#1e1e1e" text-anchor="start" style="white-space: pre;" direction="ltr" dominant-baseline="text-before-edge">    return result</text><text x="0" y="135" font-family="Virgil, Segoe UI Emoji" font-size="36px" fill="#1e1e1e" text-anchor="start" style="white-space: pre;" direction="ltr" dominant-baseline="text-before-edge">}</text></g><g transform="translate(3268.864394557121 1969.0519418881436) rotate(0 78.10198211669922 22.5)"><text x="0" y="0" font-family="Virgil, Segoe UI Emoji" font-size="36px" fill="#e03131" text-anchor="start" style="white-space: pre;" direction="ltr" dominant-baseline="text-before-edge">( a - b )</text></g><g transform="translate(3453.9674716455684 1967.9778858025961) rotate(0 310.15789794921886 22.5)"><text x="0" y="0" font-family="Virgil, Segoe UI Emoji" font-size="36px" fill="#2f9e44" text-anchor="start" style="white-space: pre;" direction="ltr" dominant-baseline="text-before-edge">? a - b : "Los números son iguales"</text></g><g stroke-linecap="round" transform="translate(2085.3848336215383 1070.1113642999403) rotate(0 154.80791688969472 21.280882003952343)"><path d="M10.64 0 M10.64 0 C83.74 -3.04, 158.24 -6.13, 298.98 0 M10.64 0 C79.1 0.12, 147.61 -1.54, 298.98 0 M298.98 0 C308.44 -3.42, 312.34 3.04, 309.62 10.64 M298.98 0 C310.34 -4.38, 310.65 7.75, 309.62 10.64 M309.62 10.64 C313.12 18.2, 310.4 28.22, 309.62 31.92 M309.62 10.64 C309.67 15.29, 307.93 21.04, 309.62 31.92 M309.62 31.92 C312.17 40.41, 304.59 39.42, 298.98 42.56 M309.62 31.92 C305.03 35.07, 302.44 42.97, 298.98 42.56 M298.98 42.56 C208.18 48.25, 120.22 44.86, 10.64 42.56 M298.98 42.56 C229.8 41.89, 162.76 41.02, 10.64 42.56 M10.64 42.56 C4.66 45.56, 1.34 40.01, 0 31.92 M10.64 42.56 C7.06 45.98, 4.12 37.18, 0 31.92 M0 31.92 C-1.66 24.68, 3.56 18.8, 0 10.64 M0 31.92 C1.05 28.1, 1.86 21.97, 0 10.64 M0 10.64 C-2.95 7.33, 4.41 3.7, 10.64 0 M0 10.64 C-1.17 2.28, 0.63 -0.92, 10.64 0" stroke="#1971c2" stroke-width="4" fill="none"></path></g><g stroke-linecap="round" transform="translate(3266.264571025251 1959.735274517785) rotate(0 419.358400769069 24.201773332046514)"><path d="M12.1 0 M12.1 0 C235.99 5.19, 455.73 4.47, 826.62 0 M12.1 0 C272.99 2.52, 534.98 3.6, 826.62 0 M826.62 0 C832.1 -3.28, 841.7 7.23, 838.72 12.1 M826.62 0 C834.28 -1.24, 839.95 4.8, 838.72 12.1 M838.72 12.1 C835.62 20.78, 840.94 27.54, 838.72 36.3 M838.72 12.1 C838.65 21.33, 839.27 28.42, 838.72 36.3 M838.72 36.3 C842.24 44.13, 833.69 50.73, 826.62 48.4 M838.72 36.3 C838.65 42.96, 832.5 44.5, 826.62 48.4 M826.62 48.4 C563.14 53.42, 301.54 53.48, 12.1 48.4 M826.62 48.4 C618.97 47.25, 411.49 47.54, 12.1 48.4 M12.1 48.4 C4.11 46.73, 1.08 46.58, 0 36.3 M12.1 48.4 C2.81 49.74, 2.62 42.9, 0 36.3 M0 36.3 C-2.81 31.26, 3.67 20.28, 0 12.1 M0 36.3 C0.36 26.84, -0.69 18.36, 0 12.1 M0 12.1 C1.67 4.3, 2.51 -2.13, 12.1 0 M0 12.1 C3.25 1.83, 2.84 -2.64, 12.1 0" stroke="#1971c2" stroke-width="4" fill="none"></path></g><g transform="translate(4287.317669181649 1882.5706937549594) rotate(0 226.27792358398438 22.5)"><text x="0" y="0" font-family="Virgil, Segoe UI Emoji" font-size="36px" fill="#1e1e1e" text-anchor="start" style="white-space: pre;" direction="ltr" dominant-baseline="text-before-edge">Aplicando Retorno directo</text></g><g transform="translate(4286.824607433466 1962.9169446780515) rotate(0 350.38787841796875 67.5)"><text x="0" y="0" font-family="Virgil, Segoe UI Emoji" font-size="36px" fill="#1e1e1e" text-anchor="start" style="white-space: pre;" direction="ltr" dominant-baseline="text-before-edge">const evaluateDifference = (a, b) =&gt; {</text><text x="0" y="45" font-family="Virgil, Segoe UI Emoji" font-size="36px" fill="#1e1e1e" text-anchor="start" style="white-space: pre;" direction="ltr" dominant-baseline="text-before-edge">    return  </text><text x="0" y="90" font-family="Virgil, Segoe UI Emoji" font-size="36px" fill="#1e1e1e" text-anchor="start" style="white-space: pre;" direction="ltr" dominant-baseline="text-before-edge">}</text></g><g transform="translate(4489.075058359444 2007.0951560213616) rotate(0 78.10198211669922 22.5)"><text x="0" y="0" font-family="Virgil, Segoe UI Emoji" font-size="36px" fill="#e03131" text-anchor="start" style="white-space: pre;" direction="ltr" dominant-baseline="text-before-edge">( a - b )</text></g><g transform="translate(4674.178135447891 2006.0210999358142) rotate(0 310.15789794921875 22.5)"><text x="0" y="0" font-family="Virgil, Segoe UI Emoji" font-size="36px" fill="#2f9e44" text-anchor="start" style="white-space: pre;" direction="ltr" dominant-baseline="text-before-edge">? a - b : "Los números son iguales"</text></g><g stroke-linecap="round" transform="translate(4486.475234827572 1997.7784886510035) rotate(0 419.358400769069 24.201773332046514)"><path d="M12.1 0 M12.1 0 C209.29 5.68, 404.79 4.43, 826.62 0 M12.1 0 C197.81 -0.07, 383.6 0.23, 826.62 0 M826.62 0 C838.06 -0.34, 836.84 7.41, 838.72 12.1 M826.62 0 C832.81 4.29, 838.44 7.05, 838.72 12.1 M838.72 12.1 C840.82 23.32, 834.51 25.87, 838.72 36.3 M838.72 12.1 C837.9 17.1, 836.4 27.52, 838.72 36.3 M838.72 36.3 C838.9 44.91, 832.27 50.07, 826.62 48.4 M838.72 36.3 C834.2 46.91, 834.12 49.47, 826.62 48.4 M826.62 48.4 C596.37 44.01, 366.18 44.5, 12.1 48.4 M826.62 48.4 C592.93 54.8, 357.93 55.11, 12.1 48.4 M12.1 48.4 C2.67 51.32, 2.9 45.25, 0 36.3 M12.1 48.4 C5.07 48.75, 2.32 48.49, 0 36.3 M0 36.3 C0.36 29.81, -1.72 14.42, 0 12.1 M0 36.3 C-1.42 28.24, -0.35 19.66, 0 12.1 M0 12.1 C-1.08 7.01, 2.97 0.61, 12.1 0 M0 12.1 C0.21 7.84, 2.65 -0.2, 12.1 0" stroke="#1971c2" stroke-width="4" fill="none"></path></g><g stroke-linecap="round" transform="translate(2151.5495635754073 1209.3171975653174) rotate(0 135.3365845646494 23.630189934016585)"><path d="M11.82 0 M11.82 0 C94.98 5.31, 176.55 1.51, 258.86 0 M11.82 0 C78.86 1.12, 142.94 2.38, 258.86 0 M258.86 0 C266.1 -3.56, 273.74 6.46, 270.67 11.82 M258.86 0 C263.39 -3.4, 267.53 1.44, 270.67 11.82 M270.67 11.82 C273.8 18.6, 266.65 28.33, 270.67 35.45 M270.67 11.82 C269.4 15.33, 269.1 21.56, 270.67 35.45 M270.67 35.45 C272.26 42.49, 267.21 47.1, 258.86 47.26 M270.67 35.45 C270.29 46.42, 269.59 46.32, 258.86 47.26 M258.86 47.26 C177.11 46.26, 89.41 46.85, 11.82 47.26 M258.86 47.26 C163.1 45.87, 65 45.67, 11.82 47.26 M11.82 47.26 C7.44 51.02, 2.91 43.75, 0 35.45 M11.82 47.26 C0.99 43.3, -0.98 47.89, 0 35.45 M0 35.45 C0.33 26.69, -0.24 19.37, 0 11.82 M0 35.45 C-0.45 28.83, -1.63 19.89, 0 11.82 M0 11.82 C-0.01 6, 3.15 2.31, 11.82 0 M0 11.82 C-1.23 5.19, 5.35 -3.05, 11.82 0" stroke="#f08c00" stroke-width="4" fill="none"></path></g><g stroke-linecap="round" transform="translate(2163.006617084091 1338.2091724589757) rotate(0 123.16344813931653 28.642661087479723)"><path d="M14.32 0 M14.32 0 C80.94 -3.27, 144.55 -3.56, 232.01 0 M14.32 0 C88.51 2.13, 166.98 4.32, 232.01 0 M232.01 0 C241.47 3.3, 243.15 5.66, 246.33 14.32 M232.01 0 C237.35 4.02, 250.65 8.12, 246.33 14.32 M246.33 14.32 C245.11 27.19, 247.1 32.96, 246.33 42.96 M246.33 14.32 C246.32 23.21, 246.82 32.55, 246.33 42.96 M246.33 42.96 C244.83 51.58, 243.52 53.99, 232.01 57.29 M246.33 42.96 C245.5 52.5, 243.93 56.38, 232.01 57.29 M232.01 57.29 C155.22 56.01, 73.65 58.86, 14.32 57.29 M232.01 57.29 C184.46 55.72, 132.97 57.16, 14.32 57.29 M14.32 57.29 C4.36 54.3, -3.5 50.77, 0 42.96 M14.32 57.29 C7.39 56.83, 1.91 56.08, 0 42.96 M0 42.96 C-2 29.94, -3.27 19.04, 0 14.32 M0 42.96 C2.34 32.67, -1.38 21.86, 0 14.32 M0 14.32 C1.16 8.22, 8.13 0.78, 14.32 0 M0 14.32 C-0.61 0.49, 7.19 1.12, 14.32 0" stroke="#f08c00" stroke-width="4" fill="none"></path></g><g stroke-linecap="round" transform="translate(4352.1908331545355 2000.571815912961) rotate(0 503.5543726562312 33.74603743448756)"><path d="M16.87 0 M16.87 0 C387.63 5.35, 758.17 4.76, 990.24 0 M16.87 0 C300.92 -3.8, 583.57 -2.6, 990.24 0 M990.24 0 C1004.02 -2.33, 1006.23 4.39, 1007.11 16.87 M990.24 0 C1001.08 1.05, 1003.36 2.64, 1007.11 16.87 M1007.11 16.87 C1008.93 33.37, 1007.16 42.31, 1007.11 50.62 M1007.11 16.87 C1008.36 24.76, 1005.73 32.54, 1007.11 50.62 M1007.11 50.62 C1003.22 65.85, 997.67 70.64, 990.24 67.49 M1007.11 50.62 C1005.04 60.52, 1001.4 62.97, 990.24 67.49 M990.24 67.49 C704.29 70.77, 419.92 69.68, 16.87 67.49 M990.24 67.49 C683.16 71.1, 376.38 71.29, 16.87 67.49 M16.87 67.49 C3.15 64.43, 1.91 59.53, 0 50.62 M16.87 67.49 C5.97 69.74, 2.65 61.71, 0 50.62 M0 50.62 C-3.69 45.29, 1.37 29.42, 0 16.87 M0 50.62 C-0.87 38.53, -1.59 26.44, 0 16.87 M0 16.87 C1.79 4.09, 2.62 -3.54, 16.87 0 M0 16.87 C-1.68 8.37, 8.68 -3.94, 16.87 0" stroke="#f08c00" stroke-width="4" fill="none"></path></g><g transform="translate(3043.187273671657 2239.850358452513) rotate(0 238.91390991210938 22.5)"><text x="0" y="0" font-family="Virgil, Segoe UI Emoji" font-size="36px" fill="#1e1e1e" text-anchor="start" style="white-space: pre;" direction="ltr" dominant-baseline="text-before-edge">Aplicando Retorno Implícito</text></g><g transform="translate(3086.985869713439 2298.0508408232604) rotate(0 319.96786499023426 22.5)"><text x="0" y="0" font-family="Virgil, Segoe UI Emoji" font-size="36px" fill="#1e1e1e" text-anchor="start" style="white-space: pre;" direction="ltr" dominant-baseline="text-before-edge"> const evaluateDifference(a, b) =&gt; </text></g><g transform="translate(3783.8269552162055 2293.71894106944) rotate(0 78.10198211669922 22.5)"><text x="0" y="0" font-family="Virgil, Segoe UI Emoji" font-size="36px" fill="#e03131" text-anchor="start" style="white-space: pre;" direction="ltr" dominant-baseline="text-before-edge">( a - b )</text></g><g transform="translate(3968.9300323046537 2292.6448849838926) rotate(0 310.15789794921875 22.5)"><text x="0" y="0" font-family="Virgil, Segoe UI Emoji" font-size="36px" fill="#2f9e44" text-anchor="start" style="white-space: pre;" direction="ltr" dominant-baseline="text-before-edge">? a - b : "Los números son iguales"</text></g><g stroke-linecap="round" transform="translate(3781.2271316843344 2284.402273699082) rotate(0 419.358400769069 24.201773332046514)"><path d="M12.1 0 M12.1 0 C212.29 -1.84, 408.68 0.26, 826.62 0 M12.1 0 C326.94 1.17, 641.68 1.3, 826.62 0 M826.62 0 C830.76 -2.33, 840.4 4.69, 838.72 12.1 M826.62 0 C835.98 -2.94, 834.4 4.4, 838.72 12.1 M838.72 12.1 C838.87 17.65, 842.11 29.23, 838.72 36.3 M838.72 12.1 C837.9 20.95, 836.86 27.67, 838.72 36.3 M838.72 36.3 C839.65 42.89, 837.63 52.24, 826.62 48.4 M838.72 36.3 C838.83 47.66, 837.85 48.97, 826.62 48.4 M826.62 48.4 C551.09 45.58, 274.84 46.53, 12.1 48.4 M826.62 48.4 C502.9 46.66, 180.34 46.8, 12.1 48.4 M12.1 48.4 C3.71 44.42, -0.8 46.16, 0 36.3 M12.1 48.4 C7.5 50.37, 3.73 44.43, 0 36.3 M0 36.3 C2.61 25.88, -0.79 16.34, 0 12.1 M0 36.3 C1.56 32.11, 0.34 24.68, 0 12.1 M0 12.1 C-2.22 4.95, 6.92 -1.54, 12.1 0 M0 12.1 C-1.13 5.61, 0.91 -4.54, 12.1 0" stroke="#1971c2" stroke-width="4" fill="none"></path></g><g stroke-linecap="round" transform="translate(3737.635221959281 2287.1956009610394) rotate(0 458.2081266822397 33.74603743448756)"><path d="M16.87 0 M16.87 0 C295.24 4.59, 578.01 2.98, 899.54 0 M16.87 0 C271.03 -2.42, 522.9 -3.34, 899.54 0 M899.54 0 C912.48 0.66, 917.54 3.07, 916.42 16.87 M899.54 0 C906.47 0.37, 918.03 1.54, 916.42 16.87 M916.42 16.87 C920.34 30.22, 918.9 39.88, 916.42 50.62 M916.42 16.87 C914.59 27.12, 916.68 40.3, 916.42 50.62 M916.42 50.62 C919.36 65.71, 910.89 70.35, 899.54 67.49 M916.42 50.62 C919.58 62.44, 912.54 63.77, 899.54 67.49 M899.54 67.49 C665.38 65.83, 434.91 64.51, 16.87 67.49 M899.54 67.49 C653.17 63.68, 406.28 63.14, 16.87 67.49 M16.87 67.49 C4.82 69.29, 3.02 63.58, 0 50.62 M16.87 67.49 C9.35 67.55, 4.6 62.4, 0 50.62 M0 50.62 C-1.18 42.68, -4 37.78, 0 16.87 M0 50.62 C-0.04 36.77, -1.71 26.18, 0 16.87 M0 16.87 C2.88 4.08, 4.64 1.37, 16.87 0 M0 16.87 C-3.12 1.08, 1.71 -4.01, 16.87 0" stroke="#f08c00" stroke-width="4" fill="none"></path></g><g transform="translate(3039.846122915405 2539.8904304715993) rotate(0 377.4598693847655 225)"><text x="0" y="0" font-family="Virgil, Segoe UI Emoji" font-size="36px" fill="#1e1e1e" text-anchor="start" style="white-space: pre;" direction="ltr" dominant-baseline="text-before-edge">const evaluateDifference = (a, b) =&gt; {</text><text x="0" y="45" font-family="Virgil, Segoe UI Emoji" font-size="36px" fill="#1e1e1e" text-anchor="start" style="white-space: pre;" direction="ltr" dominant-baseline="text-before-edge">    let result = null</text><text x="0" y="90" font-family="Virgil, Segoe UI Emoji" font-size="36px" fill="#1e1e1e" text-anchor="start" style="white-space: pre;" direction="ltr" dominant-baseline="text-before-edge">    if( a - b !== 0 ){</text><text x="0" y="135" font-family="Virgil, Segoe UI Emoji" font-size="36px" fill="#1e1e1e" text-anchor="start" style="white-space: pre;" direction="ltr" dominant-baseline="text-before-edge">        result = a - b</text><text x="0" y="180" font-family="Virgil, Segoe UI Emoji" font-size="36px" fill="#1e1e1e" text-anchor="start" style="white-space: pre;" direction="ltr" dominant-baseline="text-before-edge">        return result</text><text x="0" y="225" font-family="Virgil, Segoe UI Emoji" font-size="36px" fill="#1e1e1e" text-anchor="start" style="white-space: pre;" direction="ltr" dominant-baseline="text-before-edge">    } else {</text><text x="0" y="270" font-family="Virgil, Segoe UI Emoji" font-size="36px" fill="#1e1e1e" text-anchor="start" style="white-space: pre;" direction="ltr" dominant-baseline="text-before-edge">        result = "Los números son iguales"</text><text x="0" y="315" font-family="Virgil, Segoe UI Emoji" font-size="36px" fill="#1e1e1e" text-anchor="start" style="white-space: pre;" direction="ltr" dominant-baseline="text-before-edge">        return result</text><text x="0" y="360" font-family="Virgil, Segoe UI Emoji" font-size="36px" fill="#1e1e1e" text-anchor="start" style="white-space: pre;" direction="ltr" dominant-baseline="text-before-edge">    }</text><text x="0" y="405" font-family="Virgil, Segoe UI Emoji" font-size="36px" fill="#1e1e1e" text-anchor="start" style="white-space: pre;" direction="ltr" dominant-baseline="text-before-edge">}</text></g><g transform="translate(3269.9605277671453 2442.5631655124375) rotate(0 44.71198272705078 22.5)"><text x="0" y="0" font-family="Virgil, Segoe UI Emoji" font-size="36px" fill="#1e1e1e" text-anchor="start" style="white-space: pre;" direction="ltr" dominant-baseline="text-before-edge">Base</text></g><g stroke-linecap="round" transform="translate(3154.0463000800655 2635.4977588392544) rotate(0 116.71886578409567 17.185607578795953)"><path d="M8.59 0 M8.59 0 C86.52 -0.3, 168.09 1.68, 224.84 0 M8.59 0 C90.66 0.81, 171.58 1.09, 224.84 0 M224.84 0 C230.3 -1.28, 232.96 4.37, 233.44 8.59 M224.84 0 C232.44 0.6, 231.94 1.51, 233.44 8.59 M233.44 8.59 C234.3 13.31, 231.77 15.38, 233.44 25.78 M233.44 8.59 C233.47 15.11, 234.2 20.79, 233.44 25.78 M233.44 25.78 C233.79 32.85, 229.02 33.98, 224.84 34.37 M233.44 25.78 C235.45 30, 229.91 36.31, 224.84 34.37 M224.84 34.37 C163.79 34.2, 105.39 36.61, 8.59 34.37 M224.84 34.37 C149.88 35.69, 75.6 35.68, 8.59 34.37 M8.59 34.37 C2.47 35.62, -1.03 30.77, 0 25.78 M8.59 34.37 C4.15 34.59, -1.92 29.87, 0 25.78 M0 25.78 C-0.94 17.76, -1.68 12.8, 0 8.59 M0 25.78 C-0.76 19.81, 0.64 11.72, 0 8.59 M0 8.59 C-1.96 4.73, 2.24 -1.76, 8.59 0 M0 8.59 C0.69 0.89, 2.58 -0.77, 8.59 0" stroke="#e03131" stroke-width="1" fill="none"></path></g><g stroke-linecap="round" transform="translate(3092.464644299832 2622.6087443655492) rotate(0 357.3171806768464 171.13991092399897)"><path d="M32 0 M32 0 C205.79 3.8, 378.34 3.51, 682.63 0 M32 0 C211.07 -1.41, 389.25 -2.48, 682.63 0 M682.63 0 C703.01 3.01, 717.89 11.71, 714.63 32 M682.63 0 C700.97 -2.72, 710.93 6.34, 714.63 32 M714.63 32 C714.5 100.29, 719.18 172.87, 714.63 310.28 M714.63 32 C715.6 93.88, 714.65 158.01, 714.63 310.28 M714.63 310.28 C711.52 330.84, 707.47 339.66, 682.63 342.28 M714.63 310.28 C713.32 335.49, 702.83 343.46, 682.63 342.28 M682.63 342.28 C469.53 341.83, 257.91 340.78, 32 342.28 M682.63 342.28 C445.61 342.83, 206.94 343.27, 32 342.28 M32 342.28 C8.61 340.8, 2.24 331.99, 0 310.28 M32 342.28 C6.83 339, 3.78 331.35, 0 310.28 M0 310.28 C-0.65 220.25, 5.15 130.35, 0 32 M0 310.28 C4.78 237.78, 2.06 169.05, 0 32 M0 32 C-1.25 7.15, 11.87 -3.44, 32 0 M0 32 C-0.57 9.13, 14.11 -0.46, 32 0" stroke="#2f9e44" stroke-width="4" fill="none"></path></g><g stroke-linecap="round" transform="translate(3103.9653162478817 2578.1578570421957) rotate(0 154.80791688969475 21.280882003952456)"><path d="M10.64 0 M10.64 0 C83.61 -1.31, 151.24 0.18, 298.98 0 M10.64 0 C107.86 -4.02, 205.12 -1.92, 298.98 0 M298.98 0 C309.32 1.05, 307.01 1.18, 309.62 10.64 M298.98 0 C302.37 -4.33, 307.33 6.29, 309.62 10.64 M309.62 10.64 C311.83 20.22, 306.23 25.51, 309.62 31.92 M309.62 10.64 C310.3 18.99, 308.4 24.26, 309.62 31.92 M309.62 31.92 C313.12 36.39, 304.92 45.93, 298.98 42.56 M309.62 31.92 C308.48 40.19, 307.31 38.54, 298.98 42.56 M298.98 42.56 C225.19 47.89, 150.55 47.09, 10.64 42.56 M298.98 42.56 C209.48 43.85, 119.81 42.36, 10.64 42.56 M10.64 42.56 C5.79 42.94, -3.34 36.17, 0 31.92 M10.64 42.56 C7.33 42.3, 1.13 36.46, 0 31.92 M0 31.92 C4.03 28.23, -1.33 19.41, 0 10.64 M0 31.92 C-2.29 25.57, -0.96 13.73, 0 10.64 M0 10.64 C1.2 0.11, 3.05 -1.34, 10.64 0 M0 10.64 C3.44 3.08, 5.32 3.47, 10.64 0" stroke="#1971c2" stroke-width="4" fill="none"></path></g><g stroke-linecap="round" transform="translate(3170.1300462017507 2717.3636903075726) rotate(0 135.33658456464946 23.6301899340167)"><path d="M11.82 0 M11.82 0 C99.6 1.31, 190.3 -0.04, 258.86 0 M11.82 0 C102.93 3.84, 196.17 3.03, 258.86 0 M258.86 0 C264.13 -2.36, 267.46 0.17, 270.67 11.82 M258.86 0 C264.45 2.75, 273.2 -0.08, 270.67 11.82 M270.67 11.82 C267.96 17.63, 272.14 27.07, 270.67 35.45 M270.67 11.82 C269.2 17.59, 272.51 22.82, 270.67 35.45 M270.67 35.45 C269.53 46.69, 265.75 48.29, 258.86 47.26 M270.67 35.45 C271.91 39.3, 264.93 46.2, 258.86 47.26 M258.86 47.26 C162.39 48.88, 61.93 51.72, 11.82 47.26 M258.86 47.26 C181.9 49.19, 107.55 49.95, 11.82 47.26 M11.82 47.26 C0.6 44.41, 3.29 43.09, 0 35.45 M11.82 47.26 C5.07 44.71, -3.88 38.79, 0 35.45 M0 35.45 C-2.17 24.8, 3.02 23.97, 0 11.82 M0 35.45 C-0.16 28.39, 1.06 23.12, 0 11.82 M0 11.82 C-0.5 2.6, 6.93 -0.4, 11.82 0 M0 11.82 C1.77 7.41, 0.25 0.2, 11.82 0" stroke="#f08c00" stroke-width="4" fill="none"></path></g><g stroke-linecap="round" transform="translate(3181.5870997104344 2846.2556652012313) rotate(0 123.16344813931653 28.642661087479837)"><path d="M14.32 0 M14.32 0 C89.9 -1.7, 165.3 -3.91, 232.01 0 M14.32 0 C67.08 -2.4, 115.87 -3.88, 232.01 0 M232.01 0 C238.34 -3.77, 244.34 7.16, 246.33 14.32 M232.01 0 C244.08 -4.02, 244.29 7.74, 246.33 14.32 M246.33 14.32 C247.06 27.53, 244.32 35.11, 246.33 42.96 M246.33 14.32 C247.63 23.53, 245.31 37.05, 246.33 42.96 M246.33 42.96 C245.34 53.54, 242.63 53.79, 232.01 57.29 M246.33 42.96 C244.52 51.46, 246.12 59.45, 232.01 57.29 M232.01 57.29 C159.64 60.83, 86.91 56.88, 14.32 57.29 M232.01 57.29 C154.09 56.05, 72.77 54.64, 14.32 57.29 M14.32 57.29 C8.06 57.06, 0.98 50.29, 0 42.96 M14.32 57.29 C0.89 52.76, 0.43 56.66, 0 42.96 M0 42.96 C3.7 36.87, -2.77 20.57, 0 14.32 M0 42.96 C0.78 29.97, -0.07 19.75, 0 14.32 M0 14.32 C2.99 4.37, 6.32 3.02, 14.32 0 M0 14.32 C-3.69 4.97, 6.39 -1.52, 14.32 0" stroke="#f08c00" stroke-width="4" fill="none"></path></g><g transform="translate(5650.04760012115 2668.300877689785) rotate(0 142.6319580078125 45)"><text x="0" y="0" font-family="Virgil, Segoe UI Emoji" font-size="36px" fill="#f08c00" text-anchor="start" style="white-space: pre;" direction="ltr" dominant-baseline="text-before-edge"> .forEach(()=&gt; {</text><text x="0" y="45" font-family="Virgil, Segoe UI Emoji" font-size="36px" fill="#f08c00" text-anchor="start" style="white-space: pre;" direction="ltr" dominant-baseline="text-before-edge">}) </text></g><g transform="translate(6167.83613515726 2597.991284242727) rotate(0 97.93797302246094 22.5)"><text x="0" y="0" font-family="Virgil, Segoe UI Emoji" font-size="36px" fill="#f08c00" text-anchor="start" style="white-space: pre;" direction="ltr" dominant-baseline="text-before-edge"> ()=&gt; a - b</text></g><g transform="translate(5614.981062264606 2845.286641759548) rotate(0 228.7259521484375 22.5)"><text x="0" y="0" font-family="Virgil, Segoe UI Emoji" font-size="36px" fill="#f08c00" text-anchor="start" style="white-space: pre;" direction="ltr" dominant-baseline="text-before-edge"> .forEach((a,b) =&gt; a - b) </text></g><g transform="translate(6232.260589463451 2351.7543863828055) rotate(0 273.2759094238281 22.5)"><text x="0" y="0" font-family="Virgil, Segoe UI Emoji" font-size="36px" fill="#f08c00" text-anchor="start" style="white-space: pre;" direction="ltr" dominant-baseline="text-before-edge">const myFunct(param1, param2)</text></g><g transform="translate(6408.389727951249 2463.505332942529) rotate(0 159.82196044921875 22.5)"><text x="0" y="0" font-family="Virgil, Segoe UI Emoji" font-size="36px" fill="#f08c00" text-anchor="start" style="white-space: pre;" direction="ltr" dominant-baseline="text-before-edge">myfunct(arg1,arg2)</text></g><g transform="translate(1043.7151094967576 1807.3621316533192) rotate(0 452.8798522949219 112.49999999999989)"><text x="0" y="0" font-family="Virgil, Segoe UI Emoji" font-size="36px" fill="#1e1e1e" text-anchor="start" style="white-space: pre;" direction="ltr" dominant-baseline="text-before-edge">Función convencional</text><text x="0" y="45" font-family="Virgil, Segoe UI Emoji" font-size="36px" fill="#1e1e1e" text-anchor="start" style="white-space: pre;" direction="ltr" dominant-baseline="text-before-edge"></text><text x="0" y="90" font-family="Virgil, Segoe UI Emoji" font-size="36px" fill="#1e1e1e" text-anchor="start" style="white-space: pre;" direction="ltr" dominant-baseline="text-before-edge">function evaluateDifference(a,b){</text><text x="0" y="135" font-family="Virgil, Segoe UI Emoji" font-size="36px" fill="#1e1e1e" text-anchor="start" style="white-space: pre;" direction="ltr" dominant-baseline="text-before-edge">    return a - b ? a - b : "los números son iguales</text><text x="0" y="180" font-family="Virgil, Segoe UI Emoji" font-size="36px" fill="#1e1e1e" text-anchor="start" style="white-space: pre;" direction="ltr" dominant-baseline="text-before-edge">}</text></g><g transform="translate(1057.6411964167758 2137.6862625672284) rotate(0 705.77978515625 67.5)"><text x="0" y="0" font-family="Virgil, Segoe UI Emoji" font-size="36px" fill="#1e1e1e" text-anchor="start" style="white-space: pre;" direction="ltr" dominant-baseline="text-before-edge">Función Flecha</text><text x="0" y="45" font-family="Virgil, Segoe UI Emoji" font-size="36px" fill="#1e1e1e" text-anchor="start" style="white-space: pre;" direction="ltr" dominant-baseline="text-before-edge"></text><text x="0" y="90" font-family="Virgil, Segoe UI Emoji" font-size="36px" fill="#1e1e1e" text-anchor="start" style="white-space: pre;" direction="ltr" dominant-baseline="text-before-edge">const evaluateDifference = (a,b) =&gt; a - b ? a - b : "Los números son iguales" </text></g><g transform="translate(11.371372354270306 1794.6926162389366) rotate(0 452.8798522949219 112.49999999999989)"><text x="0" y="0" font-family="Virgil, Segoe UI Emoji" font-size="36px" fill="#1e1e1e" text-anchor="start" style="white-space: pre;" direction="ltr" dominant-baseline="text-before-edge">Función convencional anónima</text><text x="0" y="45" font-family="Virgil, Segoe UI Emoji" font-size="36px" fill="#1e1e1e" text-anchor="start" style="white-space: pre;" direction="ltr" dominant-baseline="text-before-edge"></text><text x="0" y="90" font-family="Virgil, Segoe UI Emoji" font-size="36px" fill="#1e1e1e" text-anchor="start" style="white-space: pre;" direction="ltr" dominant-baseline="text-before-edge">function (a,b){</text><text x="0" y="135" font-family="Virgil, Segoe UI Emoji" font-size="36px" fill="#1e1e1e" text-anchor="start" style="white-space: pre;" direction="ltr" dominant-baseline="text-before-edge">    return a - b ? a - b : "los números son iguales</text><text x="0" y="180" font-family="Virgil, Segoe UI Emoji" font-size="36px" fill="#1e1e1e" text-anchor="start" style="white-space: pre;" direction="ltr" dominant-baseline="text-before-edge">}</text></g><g transform="translate(10 2101.817776852224) rotate(0 451.8718566894531 67.5)"><text x="0" y="0" font-family="Virgil, Segoe UI Emoji" font-size="36px" fill="#1e1e1e" text-anchor="start" style="white-space: pre;" direction="ltr" dominant-baseline="text-before-edge">Función Flecha</text><text x="0" y="45" font-family="Virgil, Segoe UI Emoji" font-size="36px" fill="#1e1e1e" text-anchor="start" style="white-space: pre;" direction="ltr" dominant-baseline="text-before-edge"></text><text x="0" y="90" font-family="Virgil, Segoe UI Emoji" font-size="36px" fill="#1e1e1e" text-anchor="start" style="white-space: pre;" direction="ltr" dominant-baseline="text-before-edge">(a,b) =&gt; a - b ? a - b : "Los números son iguales" </text></g></svg>